<?xml version="1.0" encoding="UTF-8"?>
<!-- Lagartija Labs favicon: symbol only on white background. -->
<svg version="1.1" xmlns="http://www.w3.org/2000/svg" width="512" height="512" viewBox="280 186 462 462">
<rect x="280" y="186" width="462" height="462" fill="#ffffff"/>
<path d="M0 0 C0.963 -0.079 1.926 -0.157 2.918 -0.238 C3.997 -0.263 5.076 -0.287 6.188 -0.312 C7.916 -0.289 7.916 -0.289 9.68 -0.266 C10.775 -0.178 11.871 -0.09 13 0 C14.272 0.286 14.272 0.286 15.57 0.578 C16.31 0.862 17.05 1.145 17.812 1.438 C18.515 1.806 19.218 2.175 19.941 2.555 C20.96 3.27 20.96 3.27 22 4 C22.71 4.621 23.421 5.243 24.152 5.883 C25.191 6.962 25.191 6.962 26.25 8.062 C26.853 8.734 27.457 9.406 28.078 10.098 C28.712 11.055 29.347 12.013 30 13 C30.289 13.838 30.578 14.676 30.875 15.539 C31.213 16.488 31.551 17.437 31.898 18.414 C32.538 19.858 32.538 19.858 33.191 21.331 C33.788 22.212 34.385 23.093 35 24 C35.906 24.621 36.812 25.242 37.746 25.882 C38.828 26.391 39.909 26.901 41.023 27.426 C42.198 27.905 43.373 28.384 44.584 28.877 C45.202 29.111 45.82 29.344 46.457 29.585 C47.09 29.825 47.723 30.065 48.375 30.312 C49.017 30.574 49.658 30.835 50.32 31.105 C50.968 31.376 51.617 31.648 52.285 31.927 C52.938 32.203 53.59 32.478 54.263 32.762 C54.917 33.04 55.572 33.319 56.246 33.605 C56.903 33.882 57.56 34.159 58.237 34.444 C58.887 34.722 59.537 35 60.207 35.287 C60.844 35.568 61.482 35.849 62.139 36.138 C62.753 36.423 63.367 36.707 64 37 C65.116 37.582 66.233 38.164 67.383 38.764 C68.423 39.354 69.464 39.943 70.535 40.551 C71.529 41.141 72.522 41.731 73.545 42.339 C74.5 42.928 75.454 43.518 76.438 44.125 C77.379 44.714 78.32 45.303 79.291 45.909 C80.194 46.488 81.097 47.067 82.027 47.664 C82.881 48.229 83.734 48.794 84.613 49.376 C85.794 50.18 85.794 50.18 87 51 C88.037 51.723 88.037 51.723 89.094 52.46 C89.724 52.914 90.355 53.368 91.004 53.836 C91.597 54.279 92.19 54.723 92.8 55.179 C93.361 55.615 93.922 56.051 94.5 56.5 C95.038 56.934 95.575 57.368 96.129 57.815 C96.658 58.256 97.186 58.698 97.73 59.152 C98.52 59.833 98.52 59.833 99.326 60.527 C99.878 61.013 100.431 61.499 101 62 C101.623 62.552 102.247 63.104 102.889 63.672 C103.541 64.256 104.192 64.84 104.863 65.441 C105.517 66.036 106.17 66.63 106.843 67.242 C107.493 67.843 108.143 68.444 108.812 69.062 C109.448 69.663 110.084 70.263 110.739 70.881 C111.353 71.469 111.966 72.058 112.598 72.664 C113.184 73.235 113.771 73.807 114.375 74.396 C114.912 74.925 115.448 75.454 116 76 C116.844 76.853 117.689 77.707 118.559 78.586 C119.282 79.362 120.005 80.138 120.75 80.938 C121.44 81.733 122.129 82.528 122.84 83.348 C123.553 84.223 124.266 85.098 125 86 C125.411 86.515 125.823 87.031 126.247 87.562 C126.682 88.118 127.118 88.674 127.566 89.246 C128.015 89.832 128.464 90.418 128.926 91.021 C129.383 91.633 129.841 92.245 130.312 92.875 C130.997 93.814 130.997 93.814 131.695 94.771 C132.158 95.423 132.621 96.075 133.098 96.746 C133.57 97.428 134.042 98.11 134.528 98.812 C135.257 99.895 135.257 99.895 136 101 C136.765 102.174 136.765 102.174 137.546 103.372 C138.066 104.189 138.586 105.006 139.121 105.848 C139.898 107.097 139.898 107.097 140.691 108.373 C141.206 109.219 141.72 110.065 142.25 110.938 C142.759 111.794 143.267 112.651 143.791 113.534 C144.283 114.382 144.775 115.231 145.281 116.105 C145.75 116.937 146.22 117.769 146.703 118.626 C147.131 119.41 147.559 120.193 148 121 C148.356 121.681 148.712 122.363 149.078 123.065 C149.393 123.7 149.707 124.334 150.031 124.988 C150.47 125.923 150.47 125.923 150.918 126.876 C151.33 127.804 151.33 127.804 151.75 128.75 C152.015 129.376 152.28 130.002 152.553 130.647 C152.815 131.298 153.077 131.95 153.348 132.621 C153.742 133.65 153.742 133.65 154.145 134.699 C154.427 135.458 154.709 136.218 155 137 C155.495 138.346 155.495 138.346 156 139.719 C156.349 140.69 156.699 141.66 157.059 142.66 C157.411 143.665 157.763 144.669 158.126 145.704 C158.476 146.73 158.826 147.756 159.188 148.812 C159.527 149.834 159.866 150.855 160.216 151.907 C160.542 152.923 160.868 153.938 161.203 154.984 C161.513 155.99 161.823 156.997 162.143 158.033 C162.426 159.012 162.708 159.991 163 161 C163.239 161.93 163.478 162.86 163.725 163.818 C163.934 164.708 164.144 165.599 164.359 166.516 C164.547 167.371 164.735 168.225 164.929 169.106 C165.097 169.917 165.265 170.727 165.438 171.562 C165.589 172.317 165.741 173.072 165.897 173.849 C166.033 174.56 166.169 175.271 166.309 176.004 C166.429 176.685 166.55 177.366 166.674 178.068 C166.782 178.706 166.889 179.343 167 180 C167.183 181.115 167.366 182.23 167.555 183.379 C167.702 184.574 167.849 185.769 168 187 C168.067 187.758 168.134 188.517 168.202 189.298 C168.263 190.136 168.324 190.973 168.387 191.836 C168.466 193.166 168.466 193.166 168.546 194.523 C168.593 195.464 168.639 196.405 168.688 197.375 C168.732 198.372 168.777 199.37 168.823 200.397 C168.858 201.433 168.893 202.468 168.93 203.535 C168.951 204.596 168.973 205.657 168.995 206.75 C168.998 208.359 168.998 208.359 169 210 C168.956 211.595 168.956 211.595 168.911 213.222 C168.835 214.812 168.835 214.812 168.758 216.434 C168.692 217.489 168.625 218.544 168.557 219.631 C168.476 220.681 168.396 221.731 168.312 222.812 C168.221 223.863 168.129 224.914 168.035 225.996 C167.932 227.026 167.829 228.056 167.723 229.117 C167.551 230.615 167.551 230.615 167.375 232.144 C167.252 233.086 167.128 234.029 167 235 C166.87 235.845 166.739 236.689 166.605 237.56 C166.466 238.347 166.327 239.134 166.184 239.945 C166.035 240.7 165.886 241.454 165.732 242.232 C165.573 242.96 165.414 243.688 165.25 244.438 C164.995 245.509 164.995 245.509 164.735 246.602 C164.464 247.66 164.464 247.66 164.188 248.738 C163.997 249.436 163.806 250.135 163.609 250.854 C163.408 251.562 163.207 252.27 163 253 C162.789 253.743 162.577 254.486 162.359 255.251 C162.138 256.008 161.916 256.764 161.688 257.543 C161.455 258.3 161.223 259.057 160.984 259.837 C160.742 260.592 160.5 261.347 160.25 262.125 C159.998 262.871 159.746 263.617 159.487 264.386 C159.224 265.123 158.962 265.861 158.691 266.621 C158.418 267.351 158.145 268.08 157.864 268.832 C157.579 269.547 157.294 270.263 157 271 C156.701 271.694 156.402 272.387 156.093 273.102 C155.783 273.781 155.472 274.46 155.152 275.16 C154.832 275.829 154.512 276.499 154.183 277.188 C153.854 277.848 153.526 278.508 153.188 279.188 C152.852 279.839 152.516 280.49 152.171 281.161 C151.828 281.807 151.486 282.452 151.133 283.117 C150.609 284.078 150.609 284.078 150.075 285.058 C149.72 285.699 149.366 286.34 149 287 C148.64 287.651 148.28 288.303 147.909 288.974 C147.545 289.624 147.18 290.275 146.805 290.945 C146.436 291.588 146.068 292.231 145.689 292.893 C145.317 293.526 144.945 294.16 144.562 294.812 C144 295.745 144 295.745 143.427 296.697 C143.05 297.302 142.673 297.908 142.285 298.531 C141.908 299.118 141.53 299.704 141.141 300.309 C140.765 300.867 140.388 301.425 140 302 C139.256 303 138.512 304.001 137.746 305.031 C137.005 305.949 136.264 306.867 135.5 307.812 C134.755 308.683 134.01 309.553 133.242 310.449 C132.502 311.291 131.762 312.133 131 313 C130.281 313.852 129.561 314.704 128.82 315.582 C128.096 316.421 127.371 317.26 126.625 318.125 C125.881 318.941 125.137 319.757 124.371 320.598 C123.197 321.787 123.197 321.787 122 323 C120.718 324.143 120.718 324.143 119.41 325.309 C118.062 326.424 118.062 326.424 116.688 327.562 C115.754 328.297 114.821 329.032 113.859 329.789 C112.916 330.519 111.972 331.248 111 332 C109.646 333.094 109.646 333.094 108.266 334.211 C107.332 334.946 106.399 335.68 105.438 336.438 C103.939 337.547 103.939 337.547 102.41 338.68 C101.87 339.057 101.33 339.434 100.774 339.823 C100.189 340.212 99.603 340.6 99 341 C98.341 341.409 97.682 341.818 97.003 342.239 C96.3 342.658 95.596 343.077 94.871 343.508 C94.14 343.929 93.408 344.351 92.655 344.785 C91.903 345.207 91.15 345.628 90.375 346.062 C89.614 346.48 88.853 346.897 88.07 347.326 C87.299 347.738 86.528 348.15 85.734 348.574 C84.955 348.979 84.176 349.385 83.373 349.802 C82.198 350.395 82.198 350.395 81 351 C80.217 351.381 79.434 351.762 78.627 352.155 C77.848 352.523 77.068 352.891 76.266 353.27 C75.494 353.624 74.723 353.979 73.928 354.344 C73.168 354.684 72.408 355.024 71.625 355.375 C70.878 355.701 70.132 356.027 69.363 356.363 C68.636 356.673 67.909 356.982 67.16 357.301 C66.458 357.592 65.755 357.882 65.032 358.182 C64.026 358.587 64.026 358.587 63 359 C61.782 359.468 60.564 359.936 59.309 360.418 C57.702 360.985 57.702 360.985 56.062 361.562 C54.688 362.028 54.688 362.028 53.285 362.504 C52.154 362.749 52.154 362.749 51 363 C50.01 362.67 49.02 362.34 48 362 C49.004 361.406 50.008 360.811 51.043 360.199 C51.699 359.804 52.354 359.41 53.03 359.003 C53.742 358.569 54.454 358.135 55.188 357.688 C55.91 357.243 56.632 356.798 57.376 356.339 C58.109 355.877 58.842 355.414 59.598 354.938 C60.708 354.216 60.708 354.216 61.84 353.48 C62.553 352.992 63.266 352.503 64 352 C64.639 351.514 65.278 351.028 65.937 350.527 C66.534 350.044 67.131 349.561 67.746 349.062 C68.319 348.582 68.892 348.102 69.482 347.607 C70.024 347.138 70.566 346.67 71.125 346.188 C71.632 345.744 72.139 345.301 72.661 344.844 C73.147 344.415 73.632 343.985 74.133 343.543 C75.079 342.704 76.025 341.865 77 341 C77.523 340.567 78.045 340.134 78.584 339.688 C79.105 339.261 79.627 338.834 80.164 338.395 C81.1 337.604 82.036 336.814 83 336 C83.583 335.412 84.165 334.824 84.766 334.219 C85.5 333.368 85.5 333.368 86.25 332.5 C86.834 331.813 87.418 331.126 88.02 330.418 C88.673 329.62 89.327 328.822 90 328 C90.788 327.027 91.575 326.054 92.387 325.051 C92.803 324.526 93.22 324.001 93.65 323.46 C94.287 322.645 94.287 322.645 94.938 321.812 C95.366 321.253 95.794 320.694 96.235 320.118 C96.66 319.552 97.085 318.986 97.523 318.402 C97.942 317.834 98.361 317.265 98.792 316.679 C99.191 316.125 99.589 315.571 100 315 C101.04 313.486 101.04 313.486 102.102 311.941 C102.749 310.929 103.396 309.918 104.062 308.875 C104.699 307.808 105.336 306.74 105.992 305.641 C106.315 305.066 106.639 304.492 106.972 303.9 C107.311 303.273 107.65 302.646 108 302 C108.375 301.28 108.751 300.56 109.138 299.818 C109.528 299.048 109.918 298.278 110.32 297.484 C110.712 296.691 111.103 295.898 111.507 295.08 C111.896 294.27 112.286 293.46 112.688 292.625 C113.069 291.809 113.451 290.993 113.845 290.152 C114.397 288.938 114.397 288.938 114.961 287.699 C115.313 286.903 115.664 286.107 116.026 285.287 C116.348 284.532 116.669 283.777 117 283 C117.27 282.332 117.539 281.664 117.817 280.975 C118.056 280.35 118.294 279.726 118.539 279.082 C119.169 277.278 119.169 277.278 119.812 275.438 C120.186 274.24 120.56 273.042 120.945 271.809 C121.293 270.552 121.641 269.295 122 268 C122.184 267.29 122.368 266.58 122.558 265.848 C122.742 265.105 122.927 264.363 123.117 263.598 C123.298 262.833 123.479 262.069 123.665 261.281 C123.924 260.152 123.924 260.152 124.188 259 C124.343 258.325 124.498 257.65 124.657 256.955 C124.805 256.268 124.953 255.582 125.105 254.875 C125.25 254.13 125.394 253.385 125.542 252.617 C125.693 251.754 125.844 250.89 126 250 C126.18 248.909 126.359 247.817 126.544 246.693 C126.724 245.473 126.904 244.253 127.09 242.996 C127.256 241.703 127.421 240.41 127.592 239.078 C127.665 238.409 127.738 237.739 127.814 237.05 C127.875 236.373 127.937 235.697 128 235 C128.043 234.326 128.086 233.652 128.13 232.958 C128.16 232.28 128.191 231.602 128.222 230.903 C128.245 230.217 128.267 229.53 128.29 228.823 C128.305 228.13 128.32 227.437 128.336 226.723 C128.346 226.023 128.356 225.323 128.366 224.602 C128.37 223.894 128.375 223.185 128.38 222.455 C128.381 221.738 128.381 221.021 128.381 220.282 C128.378 219.183 128.378 219.183 128.375 218.062 C128.374 217.303 128.374 216.544 128.373 215.762 C128.371 214.992 128.368 214.222 128.366 213.429 C128.359 212.661 128.353 211.892 128.346 211.099 C128.335 210.334 128.324 209.569 128.312 208.781 C128.296 208.024 128.28 207.267 128.263 206.486 C128.229 205.375 128.229 205.375 128.195 204.242 C128.167 203.523 128.139 202.805 128.109 202.064 C128.073 201.383 128.037 200.702 128 200 C127.899 198.804 127.799 197.607 127.695 196.375 C127.569 195.292 127.443 194.209 127.312 193.094 C127.167 192.073 127.021 191.053 126.87 190.002 C126.707 189.032 126.543 188.062 126.375 187.062 C126.198 186.111 126.021 185.159 125.839 184.178 C125.648 183.253 125.458 182.328 125.262 181.375 C125.059 180.48 124.855 179.586 124.646 178.664 C124.433 177.785 124.22 176.906 124 176 C123.78 175.118 123.561 174.237 123.334 173.328 C123.107 172.457 122.879 171.585 122.645 170.688 C122.409 169.833 122.173 168.979 121.929 168.099 C121.562 166.844 121.562 166.844 121.188 165.562 C120.932 164.744 120.676 163.926 120.412 163.082 C120.15 162.283 119.888 161.484 119.617 160.66 C119.35 159.879 119.083 159.098 118.808 158.293 C118.541 157.537 118.275 156.78 118 156 C117.744 155.278 117.488 154.556 117.224 153.812 C116.967 153.11 116.71 152.407 116.445 151.684 C116.18 150.99 115.916 150.296 115.643 149.581 C115.369 148.894 115.095 148.207 114.812 147.5 C114.528 146.82 114.244 146.141 113.951 145.441 C113.65 144.754 113.349 144.067 113.039 143.359 C112.558 142.308 112.558 142.308 112.067 141.236 C111.715 140.498 111.363 139.76 111 139 C110.596 138.185 110.192 137.369 109.776 136.529 C109.342 135.679 108.908 134.829 108.461 133.953 C108.01 133.095 107.559 132.238 107.095 131.354 C106.63 130.495 106.166 129.635 105.688 128.75 C105.215 127.9 104.743 127.051 104.257 126.176 C103.546 124.934 103.546 124.934 102.82 123.668 C102.348 122.869 101.875 122.07 101.388 121.248 C100.701 120.135 100.701 120.135 100 119 C99.578 118.36 99.156 117.72 98.722 117.061 C98.316 116.48 97.91 115.899 97.492 115.301 C97.09 114.753 96.689 114.205 96.275 113.641 C95.875 113.12 95.475 112.599 95.062 112.062 C94.248 111.057 93.433 110.052 92.594 109.016 C91.738 108.02 90.882 107.025 90 106 C89.529 105.458 89.059 104.916 88.574 104.357 C87.841 103.523 87.841 103.523 87.094 102.672 C86.348 101.838 86.348 101.838 85.588 100.987 C85.085 100.435 84.581 99.882 84.062 99.312 C83.302 98.499 83.302 98.499 82.527 97.669 C82.022 97.139 81.517 96.609 80.996 96.062 C80.494 95.546 79.993 95.029 79.476 94.496 C78.989 94.002 78.502 93.509 78 93 C76.656 91.67 76.656 91.67 75.285 90.312 C74.407 89.488 73.529 88.663 72.625 87.812 C71.273 86.619 71.273 86.619 69.895 85.402 C68.462 84.213 68.462 84.213 67 83 C66.477 82.581 65.954 82.162 65.416 81.731 C64.87 81.305 64.324 80.88 63.762 80.441 C63.2 80.017 62.637 79.592 62.058 79.154 C61.482 78.732 60.906 78.31 60.312 77.875 C59.729 77.46 59.145 77.045 58.543 76.617 C57.948 76.21 57.352 75.803 56.738 75.383 C56.129 74.984 55.52 74.584 54.893 74.173 C54.268 73.786 53.644 73.399 53 73 C52.353 72.631 51.707 72.262 51.041 71.882 C50.381 71.526 49.722 71.171 49.043 70.805 C48.378 70.46 47.714 70.116 47.029 69.761 C46.359 69.428 45.69 69.094 45 68.75 C44.325 68.425 43.651 68.099 42.956 67.764 C42.286 67.449 41.616 67.133 40.926 66.809 C40.265 66.504 39.605 66.2 38.924 65.886 C38.289 65.594 37.654 65.301 37 65 C35.289 64.182 35.289 64.182 33.543 63.348 C32.436 62.841 31.328 62.334 30.188 61.812 C29.069 61.329 27.95 60.846 26.797 60.348 C26.202 60.118 25.607 59.889 24.994 59.653 C24.336 59.437 23.678 59.222 23 59 C21.823 58.714 21.823 58.714 20.623 58.421 C19.783 58.24 18.943 58.058 18.078 57.871 C17.229 57.688 16.38 57.504 15.506 57.315 C14.235 57.035 14.235 57.035 12.938 56.75 C12.108 56.561 11.278 56.372 10.424 56.177 C9.639 55.971 8.855 55.764 8.047 55.551 C6.959 55.204 6.959 55.204 5.85 54.85 C5.239 54.57 4.629 54.289 4 54 C3.304 53.21 2.608 52.42 1.891 51.605 C1.295 50.285 1.295 50.285 0.688 48.938 C0.4 48.071 0.113 47.205 -0.184 46.312 C-0.453 45.549 -0.722 44.786 -1 44 C-1.949 43.154 -2.898 42.309 -3.875 41.438 C-4.906 40.963 -5.938 40.489 -7 40 C-8.072 39.711 -9.145 39.423 -10.25 39.125 C-11.487 39.084 -12.725 39.043 -14 39 C-14.88 39.13 -15.761 39.26 -16.668 39.395 C-17.582 39.574 -18.496 39.753 -19.438 39.938 C-20.735 40.229 -20.735 40.229 -22.059 40.527 C-22.699 40.683 -23.34 40.839 -24 41 C-24 41.66 -24 42.32 -24 43 C-24.677 44.075 -24.677 44.075 -25.367 45.172 C-26.236 45.775 -27.105 46.378 -28 47 C-28.671 47.044 -29.341 47.089 -30.032 47.135 C-30.829 47.075 -31.625 47.015 -32.445 46.953 C-33.342 46.85 -34.238 46.747 -35.162 46.64 C-36.14 46.511 -37.118 46.383 -38.125 46.25 C-39.147 46.138 -40.168 46.026 -41.221 45.911 C-42.316 45.803 -43.411 45.696 -44.539 45.586 C-45.714 45.479 -46.888 45.371 -48.099 45.261 C-49.386 45.175 -50.674 45.089 -52 45 C-52.719 44.977 -53.438 44.954 -54.179 44.93 C-54.93 44.916 -55.682 44.902 -56.456 44.888 C-57.225 44.879 -57.995 44.871 -58.788 44.863 C-59.567 44.859 -60.346 44.855 -61.148 44.852 C-61.923 44.85 -62.698 44.849 -63.496 44.847 C-64.656 44.849 -64.656 44.849 -65.839 44.851 C-66.61 44.854 -67.38 44.858 -68.174 44.861 C-69.325 44.868 -69.325 44.868 -70.5 44.875 C-71.657 44.881 -71.657 44.881 -72.836 44.887 C-73.592 44.891 -74.347 44.895 -75.125 44.899 C-75.848 44.904 -76.57 44.909 -77.314 44.914 C-78.005 44.919 -78.695 44.924 -79.406 44.93 C-80.678 44.942 -81.95 44.955 -83.26 44.968 C-84.616 44.984 -84.616 44.984 -86 45 C-85.888 44.398 -85.775 43.796 -85.659 43.176 C-85.498 42.378 -85.338 41.58 -85.172 40.758 C-84.987 39.934 -84.802 39.111 -84.611 38.263 C-84.41 37.516 -84.208 36.769 -84 36 C-83.593 35.214 -83.185 34.427 -82.766 33.617 C-82.265 33.042 -81.765 32.467 -81.25 31.875 C-80.312 30.902 -80.312 30.902 -79.355 29.91 C-78.578 29.28 -77.801 28.649 -77 28 C-76.006 27.38 -75.012 26.76 -73.988 26.121 C-72.858 25.524 -71.727 24.927 -70.562 24.312 C-69.956 24.024 -69.35 23.736 -68.725 23.44 C-68.102 23.161 -67.478 22.881 -66.836 22.594 C-66.2 22.324 -65.564 22.055 -64.909 21.777 C-64.279 21.521 -63.649 21.264 -63 21 C-61.817 20.536 -60.633 20.072 -59.414 19.594 C-57.569 18.96 -57.569 18.96 -55.688 18.312 C-55.049 18.11 -54.411 17.908 -53.754 17.7 C-53.076 17.505 -52.398 17.31 -51.699 17.109 C-50.971 16.922 -50.244 16.734 -49.494 16.541 C-48.671 16.362 -47.848 16.184 -47 16 C-46.003 15.834 -45.006 15.669 -43.979 15.498 C-42.359 15.259 -42.359 15.259 -40.707 15.016 C-39.048 14.773 -39.048 14.773 -37.355 14.526 C-36.248 14.373 -35.141 14.22 -34 14.062 C-32.937 13.941 -31.875 13.82 -30.78 13.695 C-29.759 13.559 -28.739 13.424 -27.688 13.285 C-26.71 13.118 -25.733 12.951 -24.726 12.779 C-23.826 12.522 -22.927 12.265 -22 12 C-21.227 11.549 -20.454 11.098 -19.657 10.634 C-18.971 10.11 -18.285 9.586 -17.578 9.047 C-16.643 8.252 -16.643 8.252 -15.689 7.442 C-15.132 6.966 -14.574 6.49 -14 6 C-13.067 5.457 -12.133 4.915 -11.172 4.355 C-10.373 3.97 -9.573 3.585 -8.75 3.188 C-7.94 2.789 -7.131 2.391 -6.297 1.98 C-5.16 1.495 -5.16 1.495 -4 1 C-3.37 0.796 -2.739 0.593 -2.09 0.383 C-1.4 0.256 -0.711 0.13 0 0 Z " fill="#000000" transform="translate(544,229)"/>
<path d="M0 0 C1.459 -0.016 1.459 -0.016 2.947 -0.033 C3.917 -0.041 4.887 -0.048 5.887 -0.056 C7.199 -0.069 7.199 -0.069 8.538 -0.082 C9.757 -0.041 9.757 -0.041 11 0 C11.753 0.111 12.505 0.221 13.281 0.336 C13.972 0.493 14.663 0.65 15.375 0.812 C16.571 1.204 17.768 1.596 19 2 C20.361 2.588 20.361 2.588 21.75 3.188 C22.493 3.786 23.235 4.384 24 5 C24.763 6.011 25.526 7.021 26.312 8.062 C26.628 8.672 26.944 9.282 27.27 9.91 C27.511 10.6 27.752 11.289 28 12 C28.128 12.803 28.255 13.606 28.387 14.434 C28.443 15.704 28.443 15.704 28.5 17 C28.434 18.272 28.434 18.272 28.367 19.57 C28.246 20.372 28.125 21.174 28 22 C27.725 23.017 27.725 23.017 27.445 24.055 C27.175 24.655 26.904 25.256 26.625 25.875 C26.091 26.693 26.091 26.693 25.547 27.527 C24.781 28.256 24.781 28.256 24 29 C23.201 29.434 22.402 29.869 21.578 30.316 C20.24 30.871 20.24 30.871 18.875 31.438 C18.006 31.746 17.137 32.054 16.242 32.371 C15.502 32.579 14.762 32.786 14 33 C13.34 33 12.68 33 12 33 C12.007 33.792 12.015 34.585 12.022 35.401 C12.033 36.535 12.043 37.669 12.054 38.837 C12.065 40.131 12.077 41.425 12.089 42.759 C12.095 43.465 12.101 44.171 12.108 44.899 C12.114 45.631 12.12 46.363 12.127 47.117 C12.133 47.859 12.14 48.6 12.146 49.364 C12.153 50.123 12.159 50.882 12.166 51.665 C12.172 52.444 12.179 53.224 12.186 54.028 C12.192 54.828 12.199 55.628 12.205 56.453 C12.215 57.688 12.215 57.688 12.225 58.948 C12.231 59.787 12.238 60.627 12.245 61.491 C12.251 62.342 12.257 63.192 12.263 64.068 C12.269 64.924 12.275 65.779 12.281 66.66 C12.286 67.51 12.292 68.359 12.297 69.235 C12.304 70.512 12.304 70.512 12.312 71.816 C12.316 72.674 12.321 73.531 12.325 74.415 C12.33 75.28 12.334 76.145 12.339 77.035 C12.345 78.345 12.345 78.345 12.352 79.682 C12.359 81.003 12.359 81.003 12.365 82.351 C12.369 83.239 12.374 84.127 12.378 85.041 C12.382 85.937 12.386 86.833 12.391 87.756 C12.395 88.662 12.399 89.567 12.403 90.5 C12.407 91.413 12.41 92.326 12.414 93.266 C12.421 94.642 12.421 94.642 12.427 96.046 C12.433 97.428 12.433 97.428 12.439 98.839 C12.444 99.763 12.448 100.687 12.452 101.639 C12.457 102.564 12.462 103.49 12.466 104.444 C12.474 105.835 12.474 105.835 12.482 107.253 C12.488 108.18 12.494 109.107 12.5 110.062 C12.508 110.988 12.515 111.914 12.523 112.867 C12.532 113.791 12.54 114.715 12.549 115.667 C12.563 117.05 12.563 117.05 12.576 118.462 C12.585 119.381 12.594 120.301 12.604 121.249 C12.613 122.166 12.622 123.083 12.631 124.028 C12.639 124.942 12.648 125.855 12.657 126.797 C12.665 127.706 12.673 128.614 12.682 129.551 C12.692 130.905 12.692 130.905 12.703 132.287 C12.708 133.182 12.713 134.077 12.718 135 C12.723 136.332 12.723 136.332 12.729 137.691 C12.732 138.573 12.736 139.455 12.739 140.364 C12.742 141.239 12.744 142.113 12.747 143.015 C12.75 144.315 12.75 144.315 12.753 145.641 C12.755 146.501 12.757 147.361 12.759 148.248 C12.762 149.101 12.764 149.955 12.767 150.834 C12.772 151.684 12.776 152.534 12.781 153.41 C12.791 154.262 12.801 155.114 12.811 155.991 C12.823 156.837 12.834 157.683 12.846 158.555 C12.863 159.807 12.863 159.807 12.88 161.085 C12.889 161.907 12.897 162.728 12.906 163.575 C12.909 164.379 12.911 165.183 12.913 166.011 C12.912 167.19 12.912 167.19 12.912 168.392 C12.908 169.543 12.908 169.543 12.905 170.716 C12.906 171.462 12.907 172.208 12.908 172.977 C12.923 173.701 12.938 174.426 12.954 175.172 C12.967 175.872 12.981 176.572 12.995 177.293 C12.984 178.606 12.973 179.92 12.962 181.274 C12.885 182.466 12.809 183.659 12.729 184.887 C12.489 185.915 12.248 186.942 12 188 C11.417 188.79 10.835 189.581 10.234 190.395 C9.523 191.02 8.812 191.645 8.079 192.289 C7.37 192.775 6.661 193.261 5.93 193.762 C5.293 194.17 4.656 194.579 4 195 C2.925 196.191 2.925 196.191 1.828 197.406 C1.307 198.097 0.787 198.788 0.25 199.5 C-0.313 200.252 -0.877 201.003 -1.457 201.777 C-1.966 202.511 -2.475 203.244 -3 204 C-3.437 204.703 -3.874 205.405 -4.324 206.129 C-4.875 207.086 -4.875 207.086 -5.438 208.062 C-5.953 209.032 -6.469 210.001 -7 211 C-7.33 211 -7.66 211 -8 211 C-8 152.26 -8 93.52 -8 33 C-30.11 33 -52.22 33 -75 33 C-74.991 40.909 -74.981 48.819 -74.972 56.968 C-74.968 59.72 -74.965 62.472 -74.961 65.307 C-74.959 66.542 -74.957 67.776 -74.956 69.048 C-74.954 70.292 -74.952 71.535 -74.95 72.816 C-74.949 73.497 -74.948 74.177 -74.947 74.879 C-74.946 75.583 -74.945 76.288 -74.944 77.014 C-74.942 78.087 -74.942 78.087 -74.941 79.181 C-74.939 79.904 -74.938 80.626 -74.937 81.37 C-74.936 82.091 -74.935 82.812 -74.934 83.555 C-74.932 84.278 -74.931 85 -74.93 85.745 C-74.929 86.471 -74.927 87.197 -74.926 87.945 C-74.925 88.671 -74.923 89.397 -74.922 90.145 C-74.92 90.866 -74.919 91.587 -74.918 92.331 C-74.916 93.051 -74.915 93.772 -74.913 94.515 C-74.911 95.598 -74.911 95.598 -74.908 96.702 C-74.907 97.426 -74.905 98.15 -74.904 98.896 C-74.901 99.986 -74.901 99.986 -74.899 101.098 C-74.897 101.827 -74.895 102.557 -74.894 103.308 C-74.892 104.04 -74.89 104.772 -74.889 105.527 C-74.887 106.262 -74.885 106.997 -74.883 107.755 C-74.882 108.494 -74.88 109.234 -74.878 109.996 C-74.876 110.739 -74.875 111.482 -74.873 112.247 C-74.871 112.993 -74.869 113.739 -74.868 114.508 C-74.865 115.632 -74.865 115.632 -74.862 116.778 C-74.86 117.53 -74.859 118.282 -74.857 119.056 C-74.855 119.811 -74.853 120.566 -74.851 121.344 C-74.848 122.482 -74.848 122.482 -74.846 123.642 C-74.844 124.404 -74.842 125.166 -74.84 125.951 C-74.837 127.101 -74.837 127.101 -74.834 128.275 C-74.832 129.045 -74.83 129.815 -74.828 130.609 C-74.826 131.382 -74.824 132.156 -74.822 132.952 C-74.82 133.728 -74.818 134.504 -74.816 135.303 C-74.813 136.469 -74.813 136.469 -74.81 137.66 C-74.808 138.439 -74.806 139.219 -74.804 140.022 C-74.802 140.803 -74.8 141.585 -74.798 142.39 C-74.795 143.564 -74.795 143.564 -74.792 144.761 C-74.791 145.545 -74.789 146.329 -74.787 147.136 C-74.784 148.313 -74.784 148.313 -74.781 149.514 C-74.779 150.299 -74.777 151.084 -74.775 151.894 C-74.773 152.68 -74.771 153.466 -74.77 154.276 C-74.767 155.456 -74.767 155.456 -74.764 156.659 C-74.763 157.446 -74.761 158.233 -74.759 159.044 C-74.758 159.831 -74.756 160.618 -74.754 161.429 C-74.752 162.609 -74.752 162.609 -74.75 163.812 C-74.749 164.598 -74.748 165.384 -74.746 166.194 C-74.745 166.979 -74.744 167.765 -74.743 168.574 C-74.743 169.359 -74.742 170.143 -74.741 170.952 C-74.739 172.128 -74.739 172.128 -74.738 173.328 C-74.737 174.111 -74.737 174.894 -74.736 175.701 C-74.735 176.875 -74.735 176.875 -74.733 178.072 C-74.733 178.854 -74.732 179.635 -74.731 180.44 C-74.73 181.61 -74.73 181.61 -74.729 182.804 C-74.728 183.973 -74.728 183.973 -74.727 185.166 C-74.726 185.944 -74.725 186.722 -74.725 187.524 C-74.723 188.688 -74.723 188.688 -74.722 189.876 C-74.721 190.651 -74.721 191.426 -74.72 192.224 C-74.719 192.996 -74.718 193.769 -74.717 194.565 C-74.716 195.721 -74.716 195.721 -74.714 196.9 C-74.713 197.668 -74.712 198.436 -74.711 199.227 C-74.709 200.374 -74.709 200.374 -74.707 201.545 C-74.705 202.687 -74.705 202.687 -74.702 203.852 C-74.7 204.989 -74.7 204.989 -74.697 206.149 C-74.695 206.904 -74.693 207.659 -74.691 208.437 C-74.688 209.566 -74.688 209.566 -74.685 210.717 C-74.682 211.842 -74.682 211.842 -74.679 212.989 C-74.676 214.11 -74.676 214.11 -74.673 215.253 C-74.669 216.369 -74.669 216.369 -74.666 217.507 C-74.664 218.248 -74.662 218.989 -74.659 219.752 C-74.657 220.489 -74.655 221.226 -74.652 221.985 C-74.65 222.719 -74.648 223.453 -74.645 224.209 C-74.643 224.941 -74.641 225.672 -74.638 226.425 C-74.636 227.154 -74.634 227.882 -74.632 228.632 C-74.629 229.358 -74.627 230.083 -74.625 230.831 C-74.623 231.554 -74.621 232.277 -74.619 233.023 C-74.616 234.105 -74.616 234.105 -74.613 235.209 C-74.612 235.93 -74.611 236.651 -74.609 237.395 C-74.609 238.118 -74.608 238.842 -74.608 239.587 C-74.608 240.671 -74.608 240.671 -74.608 241.777 C-74.608 242.497 -74.608 243.217 -74.608 243.959 C-74.608 244.676 -74.608 245.392 -74.608 246.13 C-74.608 247.198 -74.608 247.198 -74.609 248.287 C-74.609 248.994 -74.609 249.7 -74.609 250.428 C-74.608 251.129 -74.608 251.83 -74.608 252.552 C-74.607 253.246 -74.606 253.94 -74.606 254.655 C-74.604 255.341 -74.602 256.027 -74.6 256.734 C-74.598 257.412 -74.596 258.091 -74.593 258.79 C-74.591 259.46 -74.588 260.131 -74.586 260.822 C-74.583 261.485 -74.58 262.148 -74.577 262.83 C-74.571 264.131 -74.565 265.432 -74.559 266.772 C-74.555 268.038 -74.55 269.304 -74.546 270.609 C-74.549 271.84 -74.551 273.071 -74.554 274.339 C-74.556 275.528 -74.559 276.716 -74.561 277.941 C-74.555 279.086 -74.548 280.23 -74.542 281.41 C-74.534 282.493 -74.527 283.577 -74.519 284.693 C-74.527 285.684 -74.535 286.675 -74.542 287.697 C-74.531 288.635 -74.52 289.573 -74.508 290.539 C-74.439 291.888 -74.439 291.888 -74.369 293.264 C-74.247 294.167 -74.126 295.07 -74 296 C-73.727 296.987 -73.455 297.974 -73.174 298.991 C-72.834 299.962 -72.494 300.933 -72.143 301.933 C-71.809 302.801 -71.475 303.67 -71.131 304.564 C-70.571 305.77 -70.571 305.77 -70 307 C-69.524 307.787 -69.048 308.574 -68.557 309.385 C-68.105 310.042 -67.653 310.698 -67.188 311.375 C-66.672 312.005 -66.156 312.636 -65.625 313.285 C-65.089 313.851 -64.553 314.417 -64 315 C-63.464 315.494 -62.928 315.987 -62.375 316.496 C-61.818 316.931 -61.261 317.365 -60.688 317.812 C-60.096 318.194 -59.504 318.576 -58.895 318.969 C-58.269 319.309 -57.644 319.649 -57 320 C-56.016 320.48 -56.016 320.48 -55.012 320.969 C-54.307 321.247 -53.601 321.526 -52.875 321.812 C-52.117 322.037 -51.359 322.261 -50.578 322.492 C-49.727 322.66 -48.877 322.827 -48 323 C-46.984 323.106 -45.968 323.211 -44.922 323.32 C-43.834 323.359 -42.746 323.398 -41.625 323.438 C-40.522 323.409 -39.418 323.381 -38.281 323.352 C-36.657 323.178 -36.657 323.178 -35 323 C-34 322.76 -32.999 322.52 -31.969 322.273 C-31.03 321.956 -30.092 321.639 -29.125 321.312 C-28.237 320.94 -27.349 320.567 -26.434 320.184 C-25.631 319.793 -24.827 319.402 -24 319 C-23.331 318.661 -22.662 318.322 -21.973 317.973 C-21.384 317.61 -20.794 317.248 -20.188 316.875 C-19.651 316.46 -19.115 316.045 -18.562 315.617 C-18.047 315.084 -17.531 314.55 -17 314 C-16.443 313.219 -15.886 312.438 -15.312 311.633 C-14.776 310.764 -14.24 309.895 -13.688 309 C-12.982 307.763 -12.982 307.763 -12.262 306.5 C-11.637 305.263 -11.637 305.263 -11 304 C-10.615 303.072 -10.229 302.144 -9.832 301.188 C-9.557 300.466 -9.283 299.744 -9 299 C-8.441 299.681 -7.881 300.361 -7.305 301.062 C-6.164 302.517 -6.164 302.517 -5 304 C-4.602 304.543 -4.204 305.085 -3.794 305.645 C-3.188 306.501 -3.188 306.501 -2.57 307.375 C-1.967 308.264 -1.967 308.264 -1.352 309.172 C-0.947 309.775 -0.542 310.378 -0.125 311 C0.517 311.905 0.517 311.905 1.172 312.828 C1.764 313.718 1.764 313.718 2.367 314.625 C2.906 315.739 3.445 316.852 4 318 C3.826 318.879 3.652 319.758 3.473 320.664 C2.744 321.82 2.744 321.82 2 323 C1.486 323.73 0.971 324.459 0.441 325.211 C-0.179 325.925 -0.799 326.639 -1.438 327.375 C-2.157 328.15 -2.876 328.924 -3.617 329.723 C-4.404 330.474 -5.19 331.226 -6 332 C-6.807 332.659 -7.614 333.317 -8.445 333.996 C-9.741 334.895 -9.741 334.895 -11.062 335.812 C-12 336.367 -12.937 336.921 -13.902 337.492 C-14.925 337.99 -15.947 338.487 -17 339 C-18.136 339.436 -19.271 339.871 -20.441 340.32 C-21.657 340.689 -22.873 341.058 -24.125 341.438 C-26.026 341.886 -26.026 341.886 -27.965 342.344 C-28.621 342.464 -29.277 342.584 -29.953 342.707 C-30.966 342.852 -30.966 342.852 -32 343 C-32.705 343.068 -33.411 343.137 -34.137 343.207 C-34.856 343.252 -35.575 343.297 -36.316 343.344 C-37.038 343.369 -37.759 343.394 -38.503 343.42 C-39.224 343.426 -39.945 343.431 -40.688 343.438 C-41.405 343.426 -42.123 343.414 -42.863 343.403 C-43.565 343.374 -44.268 343.346 -44.992 343.316 C-45.674 343.271 -46.355 343.226 -47.058 343.18 C-47.699 343.121 -48.34 343.061 -49 343 C-50.096 342.844 -51.191 342.688 -52.32 342.527 C-53.801 342.204 -53.801 342.204 -55.312 341.875 C-56.252 341.599 -57.192 341.323 -58.16 341.039 C-59.097 340.696 -60.034 340.353 -61 340 C-62.03 339.575 -63.06 339.149 -64.121 338.711 C-65.154 338.229 -66.186 337.747 -67.25 337.25 C-68.735 336.459 -68.735 336.459 -70.25 335.652 C-71.158 335.107 -72.065 334.562 -73 334 C-73.743 333.486 -74.485 332.971 -75.25 332.441 C-75.91 331.904 -76.57 331.366 -77.25 330.812 C-78.18 329.925 -78.18 329.925 -79.129 329.02 C-80.055 328.02 -80.055 328.02 -81 327 C-81.69 326.22 -82.379 325.44 -83.09 324.637 C-83.782 323.767 -84.474 322.896 -85.188 322 C-85.842 321.067 -86.497 320.133 -87.172 319.172 C-87.775 318.125 -88.378 317.078 -89 316 C-89.27 315.39 -89.54 314.779 -89.818 314.15 C-90.069 313.508 -90.32 312.865 -90.578 312.203 C-90.811 311.548 -91.044 310.893 -91.284 310.219 C-91.5 309.569 -91.715 308.919 -91.938 308.25 C-92.318 307.038 -92.698 305.827 -93.09 304.578 C-93.39 303.397 -93.691 302.217 -94 301 C-94.181 299.993 -94.363 298.986 -94.549 297.948 C-94.698 296.645 -94.847 295.342 -95 294 C-95.03 293.224 -95.059 292.448 -95.09 291.648 C-95.106 290.368 -95.106 290.368 -95.123 289.063 C-95.125 288.139 -95.127 287.216 -95.129 286.265 C-95.125 284.773 -95.125 284.773 -95.12 283.25 C-95.121 282.178 -95.122 281.106 -95.123 280.002 C-95.123 278.868 -95.124 277.734 -95.124 276.566 C-95.123 275.379 -95.121 274.193 -95.119 272.971 C-95.116 271.127 -95.116 271.127 -95.114 269.246 C-95.113 267.989 -95.113 266.732 -95.113 265.437 C-95.113 264.148 -95.114 262.858 -95.114 261.529 C-95.114 260.543 -95.114 260.543 -95.114 259.537 C-95.114 258.871 -95.114 258.205 -95.114 257.519 C-95.114 256.846 -95.114 256.173 -95.114 255.479 C-95.114 254.797 -95.114 254.116 -95.113 253.413 C-95.113 252.723 -95.112 252.032 -95.112 251.32 C-95.111 250.622 -95.111 249.924 -95.11 249.205 C-95.109 248.501 -95.109 247.798 -95.108 247.072 C-95.107 246.009 -95.107 246.009 -95.106 244.924 C-95.105 243.853 -95.105 243.853 -95.104 242.76 C-95.103 242.043 -95.102 241.326 -95.101 240.587 C-95.101 239.867 -95.1 239.147 -95.099 238.405 C-95.099 237.685 -95.098 236.965 -95.098 236.223 C-95.097 235.506 -95.097 234.788 -95.097 234.05 C-95.096 233.333 -95.096 232.616 -95.096 231.877 C-95.096 231.158 -95.095 230.44 -95.095 229.7 C-95.095 228.619 -95.095 228.619 -95.095 227.516 C-95.095 226.793 -95.095 226.07 -95.094 225.324 C-95.094 224.598 -95.094 223.872 -95.094 223.124 C-95.094 222.395 -95.094 221.666 -95.094 220.915 C-95.094 220.184 -95.093 219.452 -95.093 218.698 C-95.093 217.962 -95.093 217.226 -95.093 216.468 C-95.093 215.36 -95.093 215.36 -95.092 214.229 C-95.092 213.116 -95.092 213.116 -95.092 211.98 C-95.092 211.235 -95.091 210.49 -95.091 209.723 C-95.091 208.975 -95.091 208.228 -95.09 207.458 C-95.09 206.707 -95.09 205.957 -95.09 205.184 C-95.089 204.43 -95.089 203.677 -95.089 202.901 C-95.089 202.144 -95.088 201.387 -95.088 200.607 C-95.087 199.847 -95.087 199.086 -95.087 198.302 C-95.086 197.538 -95.086 196.774 -95.085 195.987 C-95.085 195.221 -95.084 194.454 -95.084 193.664 C-95.083 192.896 -95.083 192.127 -95.082 191.335 C-95.082 190.564 -95.081 189.793 -95.081 188.999 C-95.08 187.84 -95.08 187.84 -95.079 186.658 C-95.078 185.883 -95.078 185.109 -95.077 184.311 C-95.076 183.148 -95.076 183.148 -95.075 181.961 C-95.075 181.184 -95.074 180.408 -95.074 179.607 C-95.073 178.83 -95.073 178.052 -95.072 177.251 C-95.071 176.472 -95.071 175.694 -95.07 174.892 C-95.07 173.722 -95.07 173.722 -95.069 172.53 C-95.068 171.749 -95.068 170.969 -95.067 170.165 C-95.066 169.385 -95.066 168.604 -95.065 167.799 C-95.065 167.018 -95.064 166.237 -95.064 165.432 C-95.063 164.65 -95.063 163.868 -95.062 163.062 C-95.062 162.28 -95.062 161.498 -95.061 160.692 C-95.061 159.519 -95.061 159.519 -95.06 158.321 C-95.06 157.539 -95.06 156.757 -95.059 155.951 C-95.059 155.169 -95.059 154.387 -95.058 153.582 C-95.058 152.8 -95.058 152.019 -95.057 151.214 C-95.057 150.434 -95.057 149.653 -95.057 148.849 C-95.056 148.069 -95.056 147.29 -95.056 146.486 C-95.055 145.708 -95.055 144.929 -95.055 144.127 C-95.055 142.96 -95.055 142.96 -95.054 141.77 C-95.054 140.993 -95.054 140.217 -95.053 139.417 C-95.053 138.642 -95.053 137.868 -95.053 137.07 C-95.052 136.297 -95.052 135.524 -95.052 134.728 C-95.052 133.957 -95.051 133.186 -95.051 132.392 C-95.051 131.624 -95.051 130.856 -95.05 130.064 C-95.05 129.299 -95.05 128.533 -95.05 127.744 C-95.049 126.602 -95.049 126.602 -95.049 125.436 C-95.049 124.678 -95.048 123.921 -95.048 123.141 C-95.048 122.387 -95.048 121.634 -95.047 120.857 C-95.047 120.107 -95.047 119.357 -95.046 118.584 C-95.046 117.837 -95.046 117.09 -95.046 116.32 C-95.045 115.575 -95.045 114.831 -95.045 114.064 C-95.045 113.322 -95.044 112.581 -95.044 111.817 C-95.044 111.078 -95.043 110.34 -95.043 109.579 C-95.043 108.477 -95.043 108.477 -95.042 107.352 C-95.042 106.622 -95.042 105.891 -95.042 105.138 C-95.041 104.41 -95.041 103.683 -95.041 102.933 C-95.04 102.208 -95.04 101.483 -95.04 100.736 C-95.04 100.014 -95.039 99.291 -95.039 98.547 C-95.039 97.828 -95.038 97.108 -95.038 96.367 C-95.038 95.649 -95.037 94.932 -95.037 94.192 C-95.037 93.476 -95.036 92.759 -95.036 92.021 C-95.036 91.304 -95.035 90.587 -95.035 89.848 C-95.035 89.126 -95.034 88.404 -95.034 87.661 C-95.034 86.939 -95.033 86.217 -95.033 85.473 C-95.033 84.753 -95.032 84.034 -95.032 83.293 C-95.031 82.576 -95.031 81.86 -95.031 81.122 C-95.03 80.411 -95.03 79.7 -95.029 78.967 C-95.029 77.908 -95.029 77.908 -95.028 76.828 C-95.028 76.129 -95.027 75.429 -95.027 74.709 C-95.026 74.017 -95.026 73.326 -95.026 72.614 C-95.025 71.934 -95.025 71.254 -95.024 70.553 C-95.024 69.882 -95.024 69.211 -95.023 68.519 C-95.022 67.202 -95.022 65.885 -95.021 64.528 C-95.02 62.605 -95.02 62.605 -95.018 60.643 C-95.017 59.39 -95.017 58.138 -95.016 56.848 C-95.015 55.611 -95.014 54.375 -95.013 53.101 C-95.013 51.908 -95.012 50.715 -95.011 49.486 C-95.01 48.361 -95.01 47.235 -95.009 46.076 C-95.008 45.015 -95.007 43.954 -95.007 42.861 C-95.006 41.851 -95.005 40.84 -95.005 39.799 C-95.004 38.894 -95.003 37.989 -95.003 37.057 C-95.002 36.268 -95.002 35.478 -95.001 34.665 C-95.001 34.116 -95 33.566 -95 33 C-95.681 32.883 -96.363 32.766 -97.064 32.646 C-97.961 32.482 -98.858 32.318 -99.781 32.148 C-100.669 31.99 -101.556 31.832 -102.471 31.669 C-103.305 31.449 -104.14 31.228 -105 31 C-105.634 30.639 -106.267 30.277 -106.92 29.905 C-107.441 29.482 -107.963 29.06 -108.5 28.625 C-109.738 27.326 -109.738 27.326 -111 26 C-111.374 25.385 -111.748 24.77 -112.133 24.137 C-112.419 23.432 -112.705 22.726 -113 22 C-113.111 21.23 -113.222 20.461 -113.336 19.668 C-113.349 18.849 -113.362 18.031 -113.375 17.188 C-113.357 16.314 -113.339 15.44 -113.32 14.539 C-113.215 13.701 -113.109 12.863 -113 12 C-112.75 11.306 -112.5 10.613 -112.242 9.898 C-111.751 8.99 -111.751 8.99 -111.25 8.062 C-110.507 7.052 -109.765 6.041 -109 5 C-108.319 4.381 -107.639 3.762 -106.938 3.125 C-106.298 2.754 -105.659 2.382 -105 2 C-104.01 1.67 -103.02 1.34 -102 1 C-101.044 0.931 -101.044 0.931 -100.069 0.861 C-98.966 0.852 -98.966 0.852 -97.841 0.842 C-96.994 0.832 -96.148 0.822 -95.276 0.812 C-94.35 0.806 -93.424 0.801 -92.471 0.795 C-91.493 0.785 -90.515 0.775 -89.508 0.765 C-87.965 0.75 -87.965 0.75 -86.391 0.734 C-85.314 0.726 -84.238 0.718 -83.129 0.709 C-82.024 0.701 -80.919 0.692 -79.781 0.684 C-78.118 0.668 -78.118 0.668 -76.421 0.653 C-74.734 0.637 -74.734 0.637 -73.013 0.621 C-71.867 0.61 -70.722 0.599 -69.542 0.588 C-68.378 0.578 -67.215 0.567 -66.016 0.557 C-64.831 0.547 -63.647 0.537 -62.426 0.527 C-61.229 0.517 -60.032 0.507 -58.799 0.497 C-56.994 0.483 -56.994 0.483 -55.152 0.468 C-53.947 0.458 -52.742 0.448 -51.5 0.438 C-50.3 0.427 -49.1 0.416 -47.864 0.405 C-46.669 0.394 -45.475 0.384 -44.244 0.372 C-43.057 0.361 -41.869 0.351 -40.645 0.339 C-38.88 0.323 -38.88 0.323 -37.078 0.307 C-35.333 0.291 -35.333 0.291 -33.552 0.275 C-32.404 0.265 -31.256 0.254 -30.073 0.244 C-28.943 0.234 -27.813 0.224 -26.649 0.213 C-25.538 0.203 -24.426 0.194 -23.281 0.184 C-21.638 0.169 -21.638 0.169 -19.961 0.155 C-18.892 0.145 -17.823 0.136 -16.721 0.127 C-15.681 0.118 -14.641 0.11 -13.569 0.101 C-12.578 0.092 -11.586 0.084 -10.564 0.076 C-9.655 0.068 -8.745 0.06 -7.808 0.052 C-6.939 0.045 -6.07 0.038 -5.175 0.031 C-4.331 0.026 -3.488 0.021 -2.619 0.016 C-1.322 0.008 -1.322 0.008 0 0 Z " fill="#000000" transform="translate(424,244)"/>
<path d="M0 0 C1.246 -0.057 1.246 -0.057 2.517 -0.115 C3.452 -0.132 4.388 -0.15 5.352 -0.168 C6.359 -0.175 7.366 -0.183 8.404 -0.19 C9.998 -0.189 9.998 -0.189 11.625 -0.188 C13.272 -0.185 13.272 -0.185 14.952 -0.183 C16.066 -0.174 17.18 -0.165 18.328 -0.156 C19.444 -0.137 20.559 -0.118 21.709 -0.098 C22.795 -0.065 23.881 -0.033 25 0 C26.521 0.075 26.521 0.075 28.072 0.152 C29.514 0.247 29.514 0.247 30.984 0.344 C32.354 0.456 32.354 0.456 33.751 0.571 C35.05 0.691 35.05 0.691 36.375 0.812 C37.621 0.918 37.621 0.918 38.893 1.025 C40.04 1.146 40.04 1.146 41.211 1.27 C42.461 1.511 43.712 1.752 45 2 C45.808 2.659 45.808 2.659 46.631 3.331 C47.083 3.882 47.535 4.432 48 5 C48.557 6.134 49.114 7.269 49.688 8.438 C50.028 9.046 50.368 9.654 50.719 10.281 C51.353 11.132 51.353 11.132 52 12 C52.567 12.443 53.134 12.887 53.719 13.344 C54.693 13.885 54.693 13.885 55.688 14.438 C56.382 14.735 57.077 15.033 57.793 15.34 C58.521 15.558 59.25 15.776 60 16 C61.108 16.188 61.108 16.188 62.238 16.379 C62.985 16.419 63.731 16.459 64.5 16.5 C65.245 16.465 65.99 16.43 66.758 16.395 C67.498 16.264 68.238 16.134 69 16 C69.74 15.736 70.48 15.471 71.242 15.199 C71.946 14.865 72.65 14.531 73.375 14.188 C74.001 13.851 74.628 13.515 75.273 13.168 C76.128 12.59 76.128 12.59 77 12 C77.855 11.19 77.855 11.19 78.727 10.363 C79.147 9.913 79.567 9.464 80 9 C80.822 9.257 81.645 9.513 82.492 9.777 C83.609 10.16 84.725 10.543 85.875 10.938 C87.06 11.396 88.244 11.855 89.465 12.328 C90.631 12.88 91.798 13.432 93 14 C94.425 14.982 94.425 14.982 95.879 15.984 C96.723 16.711 97.568 17.438 98.438 18.188 C99.229 18.958 100.02 19.729 100.836 20.523 C101.55 21.341 102.264 22.158 103 23 C103.947 24.319 103.947 24.319 104.914 25.664 C105.458 26.538 106.002 27.412 106.562 28.312 C107.018 29.113 107.473 29.914 107.941 30.738 C108.291 31.485 108.64 32.231 109 33 C109.209 33.601 109.418 34.201 109.633 34.82 C109.754 35.54 109.875 36.259 110 37 C110.079 38.156 110.157 39.313 110.238 40.504 C110.256 41.157 110.274 41.81 110.293 42.482 C110.299 43.169 110.306 43.855 110.312 44.562 C110.313 45.274 110.314 45.986 110.315 46.719 C110.301 47.433 110.287 48.147 110.273 48.883 C110.225 49.937 110.225 49.937 110.175 51.013 C110.117 51.669 110.059 52.324 110 53 C109.786 54.049 109.572 55.099 109.352 56.18 C109.05 57.09 108.748 58 108.438 58.938 C108.075 59.792 107.713 60.647 107.34 61.527 C106.898 62.343 106.456 63.159 106 64 C105.444 64.847 104.889 65.694 104.316 66.566 C103.417 67.771 103.417 67.771 102.5 69 C101.649 70.052 101.649 70.052 100.781 71.125 C100.193 71.744 99.606 72.363 99 73 C98.268 73.577 97.536 74.155 96.781 74.75 C96.193 75.163 95.606 75.575 95 76 C94.452 75.443 93.904 74.886 93.34 74.312 C92.547 73.549 91.754 72.786 90.938 72 C90.009 71.175 89.081 70.35 88.125 69.5 C87.616 69.078 87.107 68.657 86.582 68.223 C86.06 67.819 85.538 67.416 85 67 C83.969 66.319 82.938 65.639 81.875 64.938 C80.741 64.298 79.606 63.659 78.438 63 C77.522 62.517 77.522 62.517 76.588 62.024 C75.93 61.697 75.272 61.371 74.594 61.035 C73.881 60.705 73.168 60.375 72.434 60.036 C71.631 59.694 70.827 59.352 70 59 C68.567 58.451 68.567 58.451 67.105 57.89 C66.07 57.513 65.035 57.135 63.969 56.746 C62.901 56.366 61.833 55.986 60.733 55.594 C59.102 55.021 59.102 55.021 57.438 54.438 C55.806 53.867 55.806 53.867 54.142 53.285 C53.079 52.911 52.017 52.538 50.922 52.152 C49.899 51.787 48.876 51.422 47.822 51.046 C46.891 50.701 45.96 50.356 45 50 C44.241 49.692 43.483 49.384 42.701 49.067 C41.712 48.634 41.712 48.634 40.703 48.191 C39.543 47.633 38.383 47.075 37.188 46.5 C36.132 45.938 35.076 45.376 33.988 44.797 C33.002 44.204 32.016 43.611 31 43 C29.983 42.325 28.966 41.649 27.918 40.953 C26.914 40.226 25.91 39.499 24.875 38.75 C23.906 37.987 22.936 37.224 21.938 36.438 C20.483 35.231 20.483 35.231 19 34 C17.989 33.154 16.979 32.309 15.938 31.438 C15.43 30.998 14.923 30.559 14.401 30.107 C13.645 29.435 13.645 29.435 12.875 28.75 C12.381 28.298 11.887 27.845 11.379 27.379 C10.891 26.915 10.404 26.451 9.902 25.973 C9.181 25.256 9.181 25.256 8.445 24.524 C7.968 24.021 7.491 23.518 7 23 C6.283 22.178 6.283 22.178 5.551 21.339 C5.082 20.772 4.613 20.205 4.129 19.621 C3.675 19.05 3.22 18.478 2.752 17.89 C2.319 17.328 1.885 16.766 1.438 16.188 C0.652 15.15 -0.133 14.112 -0.941 13.043 C-1.621 12.039 -2.3 11.035 -3 10 C-3.587 8.944 -4.173 7.889 -4.777 6.801 C-5.383 5.414 -5.383 5.414 -6 4 C-6 3.01 -6 2.02 -6 1 C-5.25 0.839 -4.5 0.678 -3.727 0.512 C-1.882 0.258 -1.882 0.258 0 0 Z " fill="#000000" transform="translate(466,284)"/>
<path d="M0 0 C0.877 0.26 1.753 0.521 2.656 0.789 C3.76 1.189 4.863 1.588 6 2 C6.897 2.503 7.794 3.005 8.719 3.523 C10.095 4.44 10.095 4.44 11.5 5.375 C12.543 6.093 13.586 6.811 14.66 7.551 C15.478 8.142 15.478 8.142 16.313 8.745 C16.87 9.159 17.426 9.573 18 10 C18.563 10.431 19.126 10.862 19.707 11.306 C20.276 11.756 20.846 12.205 21.434 12.668 C22.009 13.136 22.585 13.605 23.179 14.088 C23.759 14.574 24.34 15.061 24.938 15.562 C25.522 16.067 26.106 16.571 26.708 17.09 C27.293 17.612 27.878 18.134 28.48 18.672 C29.064 19.211 29.647 19.751 30.248 20.307 C30.826 20.865 31.404 21.424 32 22 C32.569 22.582 33.139 23.164 33.725 23.764 C34.286 24.362 34.848 24.961 35.426 25.578 C35.979 26.189 36.531 26.8 37.101 27.429 C37.645 28.051 38.189 28.672 38.75 29.312 C39.286 29.942 39.823 30.572 40.375 31.221 C40.9 31.856 41.424 32.491 41.965 33.145 C42.73 34.101 42.73 34.101 43.511 35.077 C44.003 35.711 44.494 36.346 45 37 C45.464 37.623 45.928 38.246 46.407 38.888 C46.851 39.506 47.296 40.125 47.754 40.762 C48.183 41.378 48.612 41.995 49.054 42.63 C49.469 43.247 49.885 43.864 50.312 44.5 C50.717 45.123 51.122 45.746 51.54 46.387 C52.129 47.321 52.129 47.321 52.73 48.273 C53.111 48.893 53.492 49.513 53.884 50.151 C54.252 50.761 54.621 51.371 55 52 C55.354 52.587 55.708 53.174 56.073 53.778 C56.416 54.359 56.76 54.94 57.113 55.539 C57.449 56.126 57.784 56.713 58.13 57.318 C58.623 58.212 58.623 58.212 59.125 59.125 C59.446 59.736 59.767 60.346 60.098 60.975 C60.417 61.607 60.735 62.239 61.062 62.891 C61.38 63.549 61.697 64.207 62.023 64.885 C62.346 65.583 62.668 66.281 63 67 C63.507 68.14 63.507 68.14 64.023 69.303 C64.538 70.506 64.538 70.506 65.062 71.734 C65.404 72.569 65.746 73.404 66.099 74.264 C66.437 75.125 66.776 75.987 67.125 76.875 C67.456 77.752 67.787 78.629 68.128 79.533 C68.614 80.886 68.614 80.886 69.109 82.266 C69.584 83.659 69.584 83.659 70.068 85.08 C70.376 86.044 70.683 87.007 71 88 C71.297 89.015 71.594 90.03 71.9 91.076 C72.186 92.118 72.471 93.161 72.766 94.234 C73.038 95.286 73.31 96.338 73.591 97.422 C73.85 98.479 74.108 99.536 74.375 100.625 C74.621 101.681 74.867 102.738 75.12 103.826 C75.349 104.867 75.577 105.908 75.812 106.98 C76.021 107.998 76.23 109.016 76.445 110.064 C76.72 111.517 76.72 111.517 77 113 C77.147 113.88 77.294 114.76 77.445 115.667 C77.566 116.495 77.688 117.323 77.812 118.176 C77.914 118.974 78.016 119.771 78.121 120.593 C78.247 121.754 78.247 121.754 78.375 122.938 C78.445 123.701 78.515 124.464 78.586 125.25 C78.643 126.002 78.7 126.753 78.758 127.527 C78.802 128.267 78.846 129.007 78.892 129.769 C78.945 130.873 78.945 130.873 79 132 C79.033 132.743 79.066 133.485 79.101 134.25 C79.127 134.994 79.153 135.738 79.18 136.504 C79.196 137.246 79.213 137.988 79.23 138.753 C79.237 139.494 79.243 140.236 79.25 141 C79.24 142.111 79.24 142.111 79.23 143.245 C79.205 144.358 79.205 144.358 79.18 145.492 C79.154 146.236 79.127 146.979 79.101 147.745 C79.067 148.489 79.034 149.233 79 150 C78.964 150.742 78.928 151.483 78.892 152.247 C78.847 152.993 78.803 153.739 78.758 154.508 C78.701 155.264 78.645 156.021 78.586 156.801 C78.482 157.951 78.482 157.951 78.375 159.125 C78.291 159.9 78.207 160.676 78.121 161.475 C78.019 162.271 77.917 163.067 77.812 163.887 C77.691 164.708 77.57 165.53 77.445 166.376 C77.298 167.242 77.151 168.108 77 169 C76.817 169.942 76.634 170.884 76.445 171.854 C76.132 173.328 76.132 173.328 75.812 174.832 C75.584 175.834 75.356 176.835 75.12 177.867 C74.874 178.88 74.628 179.894 74.375 180.938 C74.116 181.949 73.857 182.961 73.591 184.004 C73.182 185.512 73.182 185.512 72.766 187.051 C72.337 188.543 72.337 188.543 71.9 190.065 C71.603 191.034 71.306 192.002 71 193 C70.539 194.381 70.539 194.381 70.068 195.791 C69.752 196.678 69.435 197.566 69.109 198.48 C68.785 199.342 68.461 200.203 68.127 201.09 C67.797 201.927 67.466 202.763 67.125 203.625 C66.788 204.443 66.45 205.262 66.103 206.105 C65.762 206.897 65.421 207.688 65.07 208.504 C64.728 209.265 64.385 210.025 64.032 210.809 C63.692 211.532 63.351 212.255 63 213 C62.667 213.673 62.334 214.345 61.991 215.039 C61.662 215.674 61.332 216.31 60.992 216.965 C60.664 217.571 60.335 218.178 59.997 218.802 C59.668 219.383 59.339 219.964 59 220.562 C58.335 221.667 57.67 222.772 56.984 223.91 C56.002 225.44 56.002 225.44 55 227 C54.386 227.927 53.773 228.854 53.141 229.809 C52.517 230.697 51.893 231.585 51.25 232.5 C50.603 233.362 49.956 234.225 49.289 235.113 C48.534 236.066 47.778 237.019 47 238 C46.509 238.605 46.017 239.21 45.511 239.833 C44.979 240.48 44.447 241.127 43.898 241.793 C43.358 242.439 42.818 243.085 42.261 243.75 C41.721 244.389 41.181 245.029 40.625 245.688 C40.101 246.313 39.576 246.938 39.036 247.582 C38.542 248.157 38.048 248.732 37.539 249.324 C36.701 250.207 35.863 251.09 35 252 C34.34 252 33.68 252 33 252 C33 252.66 33 253.32 33 254 C32.14 254.766 31.28 255.531 30.395 256.32 C29.83 256.769 29.266 257.218 28.684 257.68 C28.067 258.157 27.449 258.634 26.812 259.125 C26.176 259.618 25.54 260.111 24.884 260.618 C24.234 261.114 23.584 261.61 22.914 262.121 C22.254 262.612 21.595 263.103 20.915 263.609 C20.283 264.068 19.651 264.527 19 265 C17.935 265.733 16.87 266.467 15.773 267.223 C14.755 267.871 13.737 268.519 12.688 269.188 C11.627 269.817 10.566 270.446 9.473 271.094 C8.327 271.723 7.181 272.352 6 273 C5.019 273.512 5.019 273.512 4.019 274.035 C3.331 274.384 2.643 274.734 1.934 275.094 C1.229 275.441 0.524 275.789 -0.203 276.147 C-1.278 276.662 -1.278 276.662 -2.375 277.188 C-3.454 277.689 -3.454 277.689 -4.555 278.201 C-5.632 278.685 -5.632 278.685 -6.73 279.18 C-7.444 279.49 -8.157 279.8 -8.892 280.12 C-9.588 280.41 -10.283 280.701 -11 281 C-11.658 281.259 -12.316 281.519 -12.995 281.786 C-13.632 282.024 -14.269 282.262 -14.926 282.508 C-16.167 282.938 -17.409 283.369 -18.688 283.812 C-19.902 284.195 -21.116 284.578 -22.367 284.973 C-23.566 285.312 -24.765 285.651 -26 286 C-27.219 286.308 -28.439 286.616 -29.695 286.934 C-30.889 287.203 -32.083 287.472 -33.312 287.75 C-34.361 287.972 -35.409 288.193 -36.488 288.422 C-38.227 288.708 -38.227 288.708 -40 289 C-40.744 289.096 -41.487 289.191 -42.253 289.29 C-43.069 289.38 -43.886 289.47 -44.727 289.562 C-45.583 289.642 -46.439 289.722 -47.321 289.804 C-48.205 289.868 -49.089 289.933 -50 290 C-50.885 290.042 -51.77 290.083 -52.681 290.126 C-53.582 290.151 -54.482 290.177 -55.41 290.203 C-56.328 290.216 -57.247 290.229 -58.193 290.242 C-59.613 290.246 -59.613 290.246 -61.062 290.25 C-62.569 290.248 -62.569 290.248 -64.106 290.247 C-65.118 290.235 -66.13 290.223 -67.172 290.211 C-68.164 290.185 -69.156 290.159 -70.178 290.132 C-71.109 290.088 -72.04 290.045 -73 290 C-73.8 289.933 -74.6 289.867 -75.424 289.798 C-76.521 289.67 -76.521 289.67 -77.641 289.539 C-78.34 289.437 -79.04 289.336 -79.761 289.231 C-80.438 289.114 -81.115 288.996 -81.812 288.875 C-82.827 288.676 -82.827 288.676 -83.862 288.474 C-84.535 288.327 -85.209 288.179 -85.902 288.027 C-86.572 287.865 -87.243 287.702 -87.933 287.535 C-88.615 287.358 -89.297 287.182 -90 287 C-90.714 286.812 -91.429 286.624 -92.165 286.43 C-92.895 286.228 -93.626 286.025 -94.379 285.816 C-95.118 285.597 -95.857 285.378 -96.619 285.152 C-97.363 284.916 -98.108 284.681 -98.875 284.438 C-99.616 284.185 -100.358 283.932 -101.121 283.672 C-101.868 283.4 -102.614 283.128 -103.383 282.848 C-104.137 282.555 -104.892 282.263 -105.669 281.961 C-106.823 281.486 -106.823 281.486 -108 281 C-109.196 280.476 -109.196 280.476 -110.417 279.941 C-111.63 279.38 -111.63 279.38 -112.867 278.809 C-113.675 278.415 -114.483 278.022 -115.316 277.617 C-116.521 277.002 -116.521 277.002 -117.75 276.375 C-118.542 275.953 -119.335 275.532 -120.151 275.098 C-120.928 274.662 -121.704 274.226 -122.504 273.777 C-123.261 273.327 -124.018 272.877 -124.797 272.414 C-125.524 271.947 -126.251 271.481 -127 271 C-128.023 270.267 -128.023 270.267 -129.066 269.52 C-130.037 268.77 -130.037 268.77 -131.027 268.004 C-131.645 267.499 -132.263 266.995 -132.899 266.475 C-133.784 265.714 -133.784 265.714 -134.688 264.938 C-135.256 264.428 -135.825 263.919 -136.411 263.394 C-136.951 262.893 -137.491 262.392 -138.047 261.875 C-138.554 261.386 -139.061 260.898 -139.584 260.395 C-140.051 259.934 -140.519 259.474 -141 259 C-141.789 258.216 -142.578 257.433 -143.391 256.625 C-144.066 255.903 -144.742 255.181 -145.438 254.438 C-146.043 253.718 -146.649 252.999 -147.273 252.258 C-147.843 251.513 -148.413 250.768 -149 250 C-149.59 249.172 -150.181 248.345 -150.789 247.492 C-151.374 246.608 -151.96 245.724 -152.562 244.812 C-153.127 243.887 -153.692 242.961 -154.273 242.008 C-154.843 241.015 -155.413 240.023 -156 239 C-156.611 237.904 -157.222 236.809 -157.852 235.68 C-158.457 234.527 -159.063 233.375 -159.688 232.188 C-160.261 231.016 -160.835 229.844 -161.426 228.637 C-161.945 227.437 -162.465 226.236 -163 225 C-163.223 224.376 -163.447 223.751 -163.677 223.108 C-163.88 222.481 -164.084 221.853 -164.293 221.207 C-164.65 219.984 -165.007 218.76 -165.375 217.5 C-165.671 216.397 -165.968 215.293 -166.273 214.156 C-166.513 213.115 -166.753 212.073 -167 211 C-167.192 210.121 -167.384 209.242 -167.582 208.336 C-167.72 207.235 -167.858 206.134 -168 205 C-168.046 204.157 -168.093 203.313 -168.141 202.444 C-168.173 201.475 -168.205 200.506 -168.238 199.508 C-168.256 198.481 -168.274 197.453 -168.292 196.395 C-168.299 195.316 -168.306 194.237 -168.312 193.125 C-168.315 192.012 -168.318 190.899 -168.321 189.752 C-168.309 188.639 -168.297 187.526 -168.285 186.379 C-168.253 185.287 -168.221 184.196 -168.188 183.071 C-168.126 182.057 -168.064 181.044 -168 180 C-167.89 179.153 -167.781 178.306 -167.667 177.433 C-167.459 176.304 -167.459 176.304 -167.246 175.152 C-167.011 174.106 -167.011 174.106 -166.771 173.039 C-166.599 172.387 -166.427 171.735 -166.25 171.062 C-165.88 169.824 -165.51 168.585 -165.129 167.309 C-164.756 166.217 -164.384 165.125 -164 164 C-163.7 163.063 -163.399 162.126 -163.09 161.16 C-162.643 159.905 -162.643 159.905 -162.188 158.625 C-161.855 157.854 -161.522 157.083 -161.18 156.289 C-160.79 155.534 -160.401 154.778 -160 154 C-159.508 153.183 -159.015 152.365 -158.508 151.523 C-157.948 150.691 -157.389 149.858 -156.812 149 C-155.902 147.768 -155.902 147.768 -154.973 146.512 C-154.322 145.683 -153.671 144.854 -153 144 C-152.318 143.14 -151.636 142.28 -150.934 141.395 C-150.213 140.542 -149.492 139.69 -148.75 138.812 C-147.611 137.581 -147.611 137.581 -146.449 136.324 C-145.237 135.174 -145.237 135.174 -144 134 C-143.12 133.326 -142.239 132.652 -141.332 131.957 C-140.418 131.352 -139.504 130.748 -138.562 130.125 C-137.186 129.305 -137.186 129.305 -135.781 128.469 C-134.863 127.984 -133.946 127.499 -133 127 C-132.082 126.577 -131.164 126.154 -130.219 125.719 C-129.342 125.358 -128.466 124.997 -127.562 124.625 C-126.78 124.329 -125.998 124.032 -125.191 123.727 C-124.468 123.487 -123.745 123.247 -123 123 C-122.082 122.738 -122.082 122.738 -121.146 122.472 C-120.438 122.316 -119.73 122.16 -119 122 C-118.282 121.936 -117.564 121.873 -116.824 121.807 C-116.048 121.781 -115.272 121.754 -114.473 121.727 C-113.17 121.692 -113.17 121.692 -111.841 121.656 C-110.924 121.646 -110.007 121.636 -109.062 121.625 C-108.12 121.623 -107.178 121.621 -106.208 121.619 C-105.268 121.635 -104.328 121.651 -103.359 121.668 C-101.978 121.727 -101.978 121.727 -100.568 121.787 C-99.721 121.857 -98.873 121.927 -98 122 C-97.31 122.116 -96.619 122.231 -95.908 122.35 C-95.304 122.499 -94.7 122.648 -94.078 122.801 C-93 123.176 -91.923 123.551 -90.812 123.938 C-89.817 124.399 -88.822 124.86 -87.797 125.336 C-86.874 125.885 -85.951 126.434 -85 127 C-84.077 127.632 -83.154 128.263 -82.203 128.914 C-81.332 129.623 -80.46 130.332 -79.562 131.062 C-78.377 132.232 -78.377 132.232 -77.168 133.426 C-76.453 134.275 -75.737 135.125 -75 136 C-74.357 136.922 -73.714 137.843 -73.051 138.793 C-72.498 139.769 -71.945 140.745 -71.375 141.75 C-70.694 143.266 -70.694 143.266 -70 144.812 C-69.67 145.864 -69.34 146.916 -69 148 C-68.835 149.114 -68.67 150.227 -68.5 151.375 C-68.459 152.489 -68.418 153.602 -68.375 154.75 C-68.456 156.363 -68.456 156.363 -68.539 158.008 C-68.691 158.995 -68.843 159.983 -69 161 C-69.255 161.822 -69.51 162.645 -69.773 163.492 C-70.096 164.196 -70.418 164.9 -70.75 165.625 C-71.237 166.511 -71.237 166.511 -71.734 167.414 C-72.152 167.937 -72.57 168.461 -73 169 C-73.706 169.565 -74.413 170.129 -75.141 170.711 C-76.061 171.349 -76.061 171.349 -77 172 C-77.014 171.322 -77.028 170.644 -77.043 169.945 C-77.091 169.015 -77.138 168.084 -77.188 167.125 C-77.284 166.123 -77.381 165.122 -77.48 164.09 C-77.738 162.56 -77.738 162.56 -78 161 C-78.285 160.094 -78.57 159.188 -78.863 158.254 C-79.426 156.984 -79.426 156.984 -80 155.688 C-80.443 154.877 -80.887 154.066 -81.344 153.23 C-81.89 152.494 -82.437 151.758 -83 151 C-83.712 150.377 -84.423 149.755 -85.156 149.113 C-86.316 148.315 -86.316 148.315 -87.5 147.5 C-88.232 147.057 -88.964 146.613 -89.719 146.156 C-90.472 145.775 -91.224 145.393 -92 145 C-92.78 144.626 -93.56 144.252 -94.363 143.867 C-95.233 143.581 -96.104 143.295 -97 143 C-98.056 142.889 -99.111 142.778 -100.199 142.664 C-101.926 142.645 -101.926 142.645 -103.688 142.625 C-104.921 142.647 -106.155 142.669 -107.426 142.691 C-109.195 142.844 -109.195 142.844 -111 143 C-111.942 143.215 -112.885 143.431 -113.855 143.652 C-115.103 144.103 -115.103 144.103 -116.375 144.562 C-117.554 145.117 -117.554 145.117 -118.758 145.684 C-119.868 146.335 -119.868 146.335 -121 147 C-121.719 147.486 -122.439 147.972 -123.18 148.473 C-123.863 149.018 -124.546 149.563 -125.25 150.125 C-125.888 150.727 -126.526 151.329 -127.184 151.949 C-127.783 152.626 -128.382 153.303 -129 154 C-129.853 155.185 -129.853 155.185 -130.723 156.395 C-131.247 157.234 -131.772 158.073 -132.312 158.938 C-133.024 160.212 -133.024 160.212 -133.75 161.512 C-134.369 162.743 -134.369 162.743 -135 164 C-135.33 164.728 -135.66 165.457 -136 166.207 C-136.268 166.881 -136.536 167.555 -136.812 168.25 C-137.204 169.488 -137.596 170.725 -138 172 C-138.184 172.911 -138.369 173.823 -138.559 174.762 C-138.704 175.83 -138.85 176.899 -139 178 C-139.067 179.198 -139.134 180.395 -139.203 181.629 C-139.219 182.927 -139.234 184.225 -139.25 185.562 C-139.246 186.615 -139.246 186.615 -139.242 187.689 C-139.229 188.4 -139.216 189.111 -139.203 189.844 C-139.177 190.548 -139.15 191.251 -139.123 191.977 C-139.082 192.644 -139.042 193.312 -139 194 C-138.871 195.124 -138.742 196.248 -138.609 197.406 C-138.408 198.448 -138.207 199.489 -138 200.562 C-137.724 201.601 -137.448 202.64 -137.164 203.711 C-136.588 205.339 -136.588 205.339 -136 207 C-135.742 207.613 -135.484 208.225 -135.218 208.856 C-134.927 209.494 -134.636 210.132 -134.336 210.789 C-134.022 211.432 -133.708 212.075 -133.385 212.738 C-133.052 213.381 -132.718 214.025 -132.375 214.688 C-132.027 215.321 -131.68 215.955 -131.322 216.608 C-130.963 217.226 -130.604 217.844 -130.234 218.48 C-129.682 219.378 -129.682 219.378 -129.119 220.294 C-128.565 221.139 -128.565 221.139 -128 222 C-127.283 222.966 -126.567 223.931 -125.828 224.926 C-124.738 226.2 -124.738 226.2 -123.625 227.5 C-122.87 228.279 -122.114 229.057 -121.336 229.859 C-120.565 230.566 -119.794 231.272 -119 232 C-118.229 232.645 -117.458 233.289 -116.664 233.953 C-115.867 234.546 -115.071 235.139 -114.25 235.75 C-113.417 236.297 -112.585 236.843 -111.727 237.406 C-110.827 237.932 -109.927 238.458 -109 239 C-107.976 239.547 -106.953 240.093 -105.898 240.656 C-104.818 241.182 -103.738 241.708 -102.625 242.25 C-101.531 242.733 -100.436 243.217 -99.309 243.715 C-98.217 244.139 -97.125 244.563 -96 245 C-94.939 245.331 -93.878 245.663 -92.785 246.004 C-91.763 246.271 -90.741 246.538 -89.688 246.812 C-88.202 247.141 -88.202 247.141 -86.688 247.477 C-85.357 247.736 -85.357 247.736 -84 248 C-82.113 248.34 -82.113 248.34 -80.188 248.688 C-79.565 248.749 -78.942 248.811 -78.301 248.875 C-77.542 248.916 -76.782 248.957 -76 249 C-74.9 249.041 -73.801 249.082 -72.668 249.125 C-71.416 249.146 -70.165 249.166 -68.875 249.188 C-67.573 249.175 -66.271 249.162 -64.93 249.148 C-63.633 249.099 -62.336 249.05 -61 249 C-59.24 248.865 -59.24 248.865 -57.445 248.727 C-56.308 248.59 -55.171 248.453 -54 248.312 C-52.853 248.124 -51.705 247.936 -50.523 247.742 C-49.361 247.497 -48.198 247.252 -47 247 C-45.194 246.54 -45.194 246.54 -43.352 246.07 C-42.122 245.696 -40.892 245.323 -39.625 244.938 C-38.384 244.495 -37.142 244.053 -35.863 243.598 C-35.232 243.346 -34.602 243.095 -33.952 242.836 C-33.308 242.56 -32.664 242.284 -32 242 C-31.331 241.692 -30.663 241.384 -29.974 241.066 C-29.296 240.734 -28.617 240.401 -27.918 240.059 C-27.239 239.707 -26.56 239.355 -25.861 238.993 C-25.185 238.624 -24.509 238.255 -23.812 237.875 C-23.144 237.493 -22.476 237.112 -21.788 236.718 C-21.132 236.323 -20.476 235.927 -19.801 235.52 C-19.161 235.11 -18.521 234.701 -17.862 234.28 C-17.247 233.857 -16.633 233.435 -16 233 C-15.426 232.563 -14.851 232.127 -14.259 231.677 C-13.714 231.231 -13.168 230.784 -12.605 230.324 C-11.821 229.644 -11.821 229.644 -11.02 228.951 C-10.519 228.493 -10.017 228.034 -9.5 227.562 C-9.016 227.102 -8.531 226.641 -8.032 226.167 C-7.568 225.706 -7.104 225.245 -6.625 224.77 C-5.759 223.856 -4.893 222.942 -4 222 C-3.216 221.117 -2.433 220.234 -1.625 219.324 C-0.924 218.475 -0.222 217.625 0.5 216.75 C1.428 215.54 1.428 215.54 2.375 214.305 C2.911 213.544 3.447 212.784 4 212 C4.454 211.281 4.908 210.561 5.375 209.82 C5.746 209.178 6.118 208.536 6.5 207.875 C6.995 206.926 7.49 205.977 8 205 C8.733 205.258 9.467 205.516 10.223 205.781 C11.139 206.183 12.056 206.586 13 207 C13.741 207.526 14.482 208.052 15.246 208.594 C15.969 209.223 16.692 209.852 17.438 210.5 C18.208 211.201 18.979 211.903 19.773 212.625 C20.876 213.801 20.876 213.801 22 215 C22.632 215.908 23.263 216.815 23.914 217.75 C24.458 218.658 25.002 219.565 25.562 220.5 C26.038 221.356 26.514 222.212 27.004 223.094 C27.333 223.723 27.661 224.352 28 225 C27.888 223.892 27.888 223.892 27.773 222.762 C27.642 221.747 27.51 220.733 27.375 219.688 C27.191 218.592 27.006 217.496 26.816 216.367 C26.547 215.256 26.278 214.145 26 213 C25.597 212.033 25.193 211.066 24.777 210.07 C24.294 209.16 23.811 208.25 23.312 207.312 C22.781 206.417 22.25 205.521 21.703 204.598 C21.141 203.74 20.579 202.883 20 202 C19.438 201.194 18.876 200.389 18.297 199.559 C17.725 198.797 17.152 198.035 16.562 197.25 C15.968 196.523 15.374 195.796 14.762 195.047 C14.18 194.371 13.599 193.696 13 193 C12.491 192.407 11.982 191.814 11.457 191.203 C10.935 190.641 10.413 190.079 9.875 189.5 C9.307 188.948 8.738 188.397 8.152 187.828 C7.442 187.225 6.732 186.622 6 186 C4.455 184.848 4.455 184.848 2.879 183.672 C2.314 183.27 1.749 182.869 1.167 182.455 C0.596 182.057 0.025 181.66 -0.562 181.25 C-1.636 180.513 -2.71 179.775 -3.816 179.016 C-4.867 178.35 -5.918 177.685 -7 177 C-8.123 176.417 -9.246 175.835 -10.402 175.234 C-11.26 174.827 -12.117 174.42 -13 174 C-13.545 174.594 -14.091 175.189 -14.652 175.801 C-15.406 176.63 -16.161 177.459 -16.938 178.312 C-18.165 179.678 -18.165 179.678 -19.418 181.07 C-20.27 182.037 -21.122 183.004 -22 184 C-22.801 184.946 -23.601 185.892 -24.426 186.867 C-25.193 187.798 -25.96 188.729 -26.75 189.688 C-27.487 190.599 -28.225 191.51 -28.984 192.449 C-29.65 193.291 -30.315 194.133 -31 195 C-31.541 195.708 -32.083 196.415 -32.641 197.145 C-33.089 197.757 -33.538 198.369 -34 199 C-34.66 199.99 -35.32 200.98 -36 202 C-36.33 202.99 -36.66 203.98 -37 205 C-37.144 206.176 -37.289 207.351 -37.438 208.562 C-37.43 209.611 -37.43 209.611 -37.422 210.68 C-37.283 211.445 -37.143 212.211 -37 213 C-36.389 214.272 -36.389 214.272 -35.766 215.57 C-35.245 216.434 -34.724 217.298 -34.188 218.188 C-33.665 218.985 -33.143 219.783 -32.605 220.605 C-32.076 221.396 -31.546 222.186 -31 223 C-30.438 223.86 -29.876 224.72 -29.297 225.605 C-28.869 226.396 -28.441 227.186 -28 228 C-28.021 229.031 -28.041 230.062 -28.062 231.125 C-28.372 232.074 -28.681 233.023 -29 234 C-29.536 234.639 -30.072 235.279 -30.625 235.938 C-31.409 236.288 -32.192 236.639 -33 237 C-34.176 236.959 -35.351 236.918 -36.562 236.875 C-37.697 236.586 -38.831 236.298 -40 236 C-40.531 235.625 -41.062 235.25 -41.609 234.863 C-42.068 234.248 -42.527 233.634 -43 233 C-43.313 231.965 -43.626 230.93 -43.949 229.863 C-44.193 228.692 -44.436 227.52 -44.688 226.312 C-44.939 225.133 -45.19 223.954 -45.449 222.738 C-45.631 221.835 -45.813 220.931 -46 220 C-47.65 219.67 -49.3 219.34 -51 219 C-51.942 220.005 -51.942 220.005 -52.902 221.031 C-53.595 222.011 -54.287 222.991 -55 224 C-55.311 225.186 -55.621 226.372 -55.941 227.594 C-56.146 228.883 -56.351 230.172 -56.562 231.5 C-56.77 232.789 -56.978 234.078 -57.191 235.406 C-57.458 236.592 -57.725 237.778 -58 239 C-58.483 239.959 -58.967 240.918 -59.465 241.906 C-59.971 242.597 -60.478 243.288 -61 244 C-61.66 244.33 -62.32 244.66 -63 245 C-64.114 245.124 -65.227 245.247 -66.375 245.375 C-68.169 245.189 -68.169 245.189 -70 245 C-70.804 244.299 -71.609 243.597 -72.438 242.875 C-72.953 241.926 -73.469 240.977 -74 240 C-74.124 239.083 -74.248 238.167 -74.375 237.223 C-74.189 235.627 -74.189 235.627 -74 234 C-73.362 232.949 -72.724 231.899 -72.066 230.816 C-71.464 230.013 -71.464 230.013 -70.85 229.193 C-70.425 228.655 -70 228.117 -69.562 227.562 C-69.142 227.028 -68.721 226.494 -68.287 225.943 C-67.683 225.138 -67.683 225.138 -67.066 224.316 C-66.044 222.675 -66.044 222.675 -65 221 C-64.741 219.71 -64.482 218.419 -64.215 217.09 C-64.144 216.07 -64.073 215.051 -64 214 C-65.454 214.031 -65.454 214.031 -66.938 214.062 C-67.574 214.151 -68.211 214.24 -68.867 214.332 C-69.571 214.552 -70.275 214.773 -71 215 C-71.745 215.478 -72.49 215.956 -73.258 216.449 C-74.018 217.043 -74.779 217.638 -75.562 218.25 C-76.324 218.876 -77.086 219.503 -77.871 220.148 C-78.925 221.065 -78.925 221.065 -80 222 C-80.548 222.508 -81.096 223.016 -81.66 223.539 C-82.144 223.98 -82.627 224.421 -83.125 224.875 C-84.074 225.576 -85.022 226.278 -86 227 C-87.176 227.33 -88.351 227.66 -89.562 228 C-90.697 228 -91.831 228 -93 228 C-93.949 227.567 -94.897 227.134 -95.875 226.688 C-96.576 226.131 -97.278 225.574 -98 225 C-98.33 224.34 -98.66 223.68 -99 223 C-99.124 222.072 -99.248 221.144 -99.375 220.188 C-99.189 218.61 -99.189 218.61 -99 217 C-98.443 216.134 -97.886 215.268 -97.312 214.375 C-96.86 213.97 -96.408 213.565 -95.941 213.148 C-95.301 212.769 -94.66 212.39 -94 212 C-92.559 211.493 -92.559 211.493 -91.09 210.977 C-89.988 210.654 -88.886 210.332 -87.75 210 C-86.617 209.685 -85.484 209.371 -84.316 209.047 C-83.222 208.701 -82.128 208.356 -81 208 C-80.06 207.551 -79.121 207.103 -78.152 206.641 C-77.339 206.182 -76.526 205.723 -75.688 205.25 C-74.969 204.822 -74.251 204.394 -73.512 203.953 C-73.013 203.639 -72.514 203.324 -72 203 C-72 202.01 -72 201.02 -72 200 C-72.545 199.867 -73.091 199.734 -73.652 199.598 C-74.406 199.421 -75.161 199.244 -75.938 199.062 C-76.756 198.876 -77.575 198.689 -78.418 198.496 C-79.27 198.332 -80.122 198.169 -81 198 C-82.201 197.894 -82.201 197.894 -83.426 197.785 C-84.576 197.706 -84.576 197.706 -85.75 197.625 C-86.854 197.511 -86.854 197.511 -87.98 197.395 C-88.98 197.199 -88.98 197.199 -90 197 C-91.011 196.443 -92.021 195.886 -93.062 195.312 C-94.022 194.168 -94.022 194.168 -95 193 C-95.278 191.515 -95.278 191.515 -95.562 190 C-95.377 189.01 -95.191 188.02 -95 187 C-94.464 186.216 -93.928 185.433 -93.375 184.625 C-92.199 183.821 -92.199 183.821 -91 183 C-90.134 182.814 -89.267 182.629 -88.375 182.438 C-87.261 182.623 -86.147 182.809 -85 183 C-83.9 183.524 -83.9 183.524 -82.777 184.059 C-81.964 184.493 -81.151 184.927 -80.312 185.375 C-79.454 185.827 -78.595 186.28 -77.711 186.746 C-76.369 187.367 -76.369 187.367 -75 188 C-73.627 188.42 -73.627 188.42 -72.227 188.848 C-71.306 189.042 -70.386 189.237 -69.438 189.438 C-68.529 189.574 -67.62 189.711 -66.684 189.852 C-65.355 189.925 -65.355 189.925 -64 190 C-62.718 189.888 -62.718 189.888 -61.41 189.773 C-60.615 189.621 -59.819 189.469 -59 189.312 C-58.299 189.144 -57.597 188.975 -56.875 188.801 C-55.947 188.404 -55.947 188.404 -55 188 C-54.518 187.615 -54.035 187.23 -53.538 186.834 C-53.031 186.229 -52.523 185.624 -52 185 C-51.586 184.082 -51.172 183.165 -50.745 182.219 C-50.338 181.109 -49.931 179.999 -49.512 178.855 C-48.822 177.002 -48.822 177.002 -48.119 175.111 C-47.883 174.465 -47.647 173.819 -47.404 173.153 C-47.167 172.504 -46.931 171.856 -46.688 171.188 C-46.457 170.559 -46.226 169.93 -45.988 169.281 C-45.758 168.658 -45.528 168.035 -45.291 167.393 C-45.06 166.768 -44.829 166.143 -44.59 165.499 C-44.358 164.874 -44.126 164.249 -43.887 163.605 C-43.653 162.979 -43.42 162.353 -43.179 161.708 C-42.943 161.08 -42.707 160.453 -42.464 159.807 C-42.226 159.181 -41.987 158.555 -41.741 157.91 C-41.497 157.28 -41.252 156.649 -41 156 C-40.743 155.354 -40.486 154.709 -40.221 154.044 C-39.96 153.401 -39.699 152.758 -39.43 152.095 C-39.037 151.151 -39.037 151.151 -38.637 150.187 C-38.381 149.58 -38.126 148.973 -37.863 148.348 C-37.398 147.24 -36.933 146.133 -36.454 144.992 C-35.974 144.005 -35.494 143.017 -35 142 C-34.4 141.123 -33.801 140.246 -33.183 139.343 C-32.627 138.652 -32.072 137.961 -31.5 137.25 C-30.911 136.647 -30.322 136.043 -29.715 135.422 C-29.149 134.953 -28.583 134.483 -28 134 C-27.031 133.505 -26.061 133.01 -25.062 132.5 C-24.052 132.335 -23.041 132.17 -22 132 C-20.845 131.876 -19.69 131.752 -18.5 131.625 C-17.479 131.658 -17.479 131.658 -16.438 131.691 C-15.633 131.793 -14.829 131.895 -14 132 C-12.484 132.323 -12.484 132.323 -10.938 132.652 C-9.803 132.953 -8.669 133.253 -7.5 133.562 C-6.291 133.932 -5.082 134.302 -3.836 134.684 C-3.208 134.894 -2.58 135.104 -1.933 135.32 C-1.295 135.544 -0.657 135.769 0 136 C0.64 136.236 1.281 136.472 1.94 136.715 C2.587 136.965 3.233 137.215 3.898 137.473 C4.552 137.738 5.205 138.003 5.878 138.277 C6.867 138.697 6.867 138.697 7.875 139.125 C8.538 139.419 9.2 139.712 9.883 140.014 C10.551 140.324 11.218 140.634 11.906 140.953 C12.578 141.28 13.249 141.607 13.941 141.943 C14.621 142.292 15.3 142.641 16 143 C16.695 143.38 17.39 143.759 18.105 144.15 C18.803 144.549 19.5 144.948 20.219 145.359 C20.909 145.77 21.6 146.181 22.311 146.604 C22.992 147.023 23.673 147.443 24.375 147.875 C25.044 148.298 25.713 148.722 26.402 149.158 C27.049 149.583 27.696 150.008 28.363 150.445 C28.984 150.87 29.605 151.294 30.245 151.731 C30.824 152.15 31.403 152.569 32 153 C32.984 153.802 33.967 154.604 34.98 155.43 C35.833 156.195 36.685 156.961 37.562 157.75 C38.327 158.48 39.091 159.209 39.879 159.961 C40.929 160.97 40.929 160.97 42 162 C42.69 162.59 43.379 163.181 44.09 163.789 C44.72 164.312 45.351 164.836 46 165.375 C47.485 166.674 47.485 166.674 49 168 C49.66 168.99 50.32 169.98 51 171 C50.853 170.383 50.706 169.765 50.555 169.129 C50.218 167.859 50.218 167.859 49.875 166.562 C49.595 165.647 49.316 164.732 49.027 163.789 C48.688 162.869 48.349 161.948 48 161 C47.609 160.224 47.219 159.448 46.816 158.648 C46.361 157.919 45.906 157.189 45.438 156.438 C44.915 155.709 44.393 154.981 43.855 154.23 C42.937 153.126 42.937 153.126 42 152 C41.254 151.212 40.507 150.425 39.738 149.613 C38.507 148.443 38.507 148.443 37.25 147.25 C36.401 146.496 35.551 145.742 34.676 144.965 C33.793 144.316 32.91 143.668 32 143 C31.065 142.609 30.131 142.219 29.168 141.816 C28.267 141.485 27.366 141.154 26.438 140.812 C25.609 140.434 24.78 140.055 23.926 139.664 C23.29 139.115 22.655 138.566 22 138 C21.767 137.059 21.533 136.118 21.293 135.148 C21.238 134.006 21.182 132.864 21.125 131.688 C21.128 130.464 21.13 129.241 21.133 127.98 C21.089 126.667 21.045 125.353 21 124 C20.875 123.302 20.749 122.604 20.62 121.885 C20.454 121.177 20.288 120.468 20.117 119.738 C19.846 118.678 19.846 118.678 19.57 117.597 C19.288 116.559 19.288 116.559 19 115.5 C18.821 114.842 18.642 114.184 18.458 113.507 C18.286 112.875 18.114 112.244 17.938 111.594 C17.628 110.408 17.319 109.222 17 108 C16.738 106.935 16.477 105.87 16.207 104.773 C16.139 103.858 16.07 102.943 16 102 C16.354 101.322 16.709 100.644 17.074 99.945 C17.607 99.345 18.139 98.744 18.688 98.125 C19.244 97.438 19.801 96.751 20.375 96.043 C20.911 95.369 21.447 94.695 22 94 C22.392 93.419 22.784 92.837 23.188 92.238 C23.518 91.644 23.847 91.05 24.188 90.438 C24.496 89.797 24.804 89.156 25.121 88.496 C25.411 87.672 25.701 86.849 26 86 C26.3 84.733 26.601 83.466 26.91 82.16 C27.052 81.477 27.195 80.794 27.341 80.09 C27.476 79.4 27.611 78.711 27.75 78 C27.878 77.316 28.006 76.632 28.137 75.927 C28.252 75.291 28.366 74.655 28.484 74 C28.655 73.01 28.825 72.02 29 71 C28.34 71 27.68 71 27 71 C26.621 72.087 26.621 72.087 26.234 73.195 C25.623 74.584 25.623 74.584 25 76 C24.428 76.802 23.855 77.604 23.266 78.43 C22.6 79.237 21.935 80.044 21.25 80.875 C20.169 82.184 20.169 82.184 19.066 83.52 C18.044 84.747 18.044 84.747 17 86 C16.514 86.623 16.028 87.245 15.527 87.887 C15.085 88.44 14.643 88.993 14.188 89.562 C13.707 90.114 13.226 90.666 12.73 91.234 C12.159 91.817 11.588 92.4 11 93 C10.233 93.686 9.466 94.372 8.676 95.078 C7.793 95.815 6.91 96.553 6 97.312 C5.045 98.07 4.09 98.828 3.105 99.609 C2.081 100.398 1.056 101.187 0 102 C-0.532 102.412 -1.063 102.824 -1.611 103.248 C-2.156 103.666 -2.7 104.085 -3.262 104.516 C-3.82 104.936 -4.379 105.356 -4.955 105.789 C-5.526 106.209 -6.098 106.63 -6.688 107.062 C-7.272 107.48 -7.857 107.898 -8.459 108.328 C-9.057 108.741 -9.654 109.153 -10.27 109.578 C-10.879 109.984 -11.488 110.389 -12.116 110.807 C-12.738 111.2 -13.359 111.594 -14 112 C-14.954 112.564 -14.954 112.564 -15.927 113.139 C-16.574 113.5 -17.22 113.862 -17.887 114.234 C-18.87 114.758 -18.87 114.758 -19.872 115.293 C-20.533 115.629 -21.194 115.966 -21.875 116.312 C-22.867 116.799 -22.867 116.799 -23.88 117.295 C-24.546 117.606 -25.212 117.918 -25.898 118.238 C-26.57 118.536 -27.241 118.833 -27.933 119.139 C-28.615 119.423 -29.297 119.707 -30 120 C-30.705 120.272 -31.411 120.545 -32.138 120.826 C-32.848 121.083 -33.558 121.34 -34.289 121.605 C-34.994 121.844 -35.7 122.083 -36.426 122.329 C-37.111 122.55 -37.795 122.772 -38.5 123 C-39.748 123.392 -40.996 123.784 -42.281 124.188 C-44.122 124.59 -44.122 124.59 -46 125 C-47.03 125.089 -47.03 125.089 -48.081 125.18 C-48.772 125.197 -49.464 125.213 -50.176 125.23 C-51.438 125.154 -52.7 125.078 -54 125 C-54.829 124.79 -55.658 124.58 -56.512 124.363 C-57.23 124.017 -57.948 123.67 -58.688 123.312 C-59.524 122.859 -60.361 122.405 -61.223 121.938 C-62.139 121.298 -63.056 120.659 -64 120 C-64.523 119.554 -65.046 119.108 -65.585 118.648 C-66.133 118.146 -66.681 117.643 -67.246 117.125 C-67.802 116.591 -68.357 116.057 -68.93 115.506 C-69.489 114.947 -70.049 114.388 -70.625 113.812 C-71.461 112.954 -71.461 112.954 -72.314 112.078 C-72.858 111.504 -73.401 110.931 -73.961 110.34 C-74.484 109.772 -75.007 109.205 -75.546 108.621 C-76.266 107.818 -76.266 107.818 -77 107 C-77.755 106.114 -78.511 105.229 -79.289 104.316 C-79.936 103.511 -80.583 102.705 -81.25 101.875 C-81.862 101.087 -82.475 100.3 -83.105 99.488 C-83.731 98.667 -84.356 97.846 -85 97 C-85.739 96.024 -86.477 95.048 -87.238 94.043 C-88.005 93.059 -88.772 92.076 -89.562 91.062 C-90.319 90.149 -91.076 89.235 -91.855 88.293 C-92.563 87.536 -93.271 86.78 -94 86 C-95.114 85.299 -96.228 84.597 -97.375 83.875 C-98.571 83.586 -99.767 83.298 -101 83 C-101.788 82.84 -102.575 82.68 -103.387 82.516 C-104.27 82.387 -105.153 82.258 -106.062 82.125 C-106.997 82.055 -107.932 81.986 -108.895 81.914 C-109.919 81.942 -110.944 81.971 -112 82 C-113.179 82.214 -114.359 82.428 -115.574 82.648 C-116.787 82.929 -118 83.21 -119.25 83.5 C-120.369 83.799 -121.488 84.098 -122.641 84.406 C-123.749 84.602 -124.858 84.798 -126 85 C-127.254 84.889 -128.509 84.778 -129.801 84.664 C-130.857 84.445 -131.912 84.226 -133 84 C-133.959 83.443 -133.959 83.443 -134.938 82.875 C-135.288 82.256 -135.639 81.637 -136 81 C-136.124 79.845 -136.248 78.69 -136.375 77.5 C-136.251 76.345 -136.127 75.19 -136 74 C-135.608 73.381 -135.216 72.762 -134.812 72.125 C-133.915 71.568 -133.915 71.568 -133 71 C-132.286 70.812 -131.572 70.624 -130.836 70.43 C-129.432 70.217 -129.432 70.217 -128 70 C-126.851 69.979 -125.703 69.959 -124.52 69.938 C-123.296 69.958 -122.073 69.979 -120.812 70 C-119.581 70.021 -118.35 70.041 -117.082 70.062 C-115.556 70.032 -115.556 70.032 -114 70 C-113.34 69.67 -112.68 69.34 -112 69 C-112.077 68.39 -112.155 67.781 -112.234 67.152 C-112.487 66.442 -112.74 65.732 -113 65 C-113.603 64.568 -114.207 64.136 -114.828 63.691 C-115.627 63.319 -116.427 62.946 -117.25 62.562 C-118.142 62.144 -119.034 61.725 -119.953 61.293 C-120.959 60.866 -121.964 60.44 -123 60 C-124.15 59.563 -125.3 59.126 -126.484 58.676 C-127.645 58.247 -128.805 57.817 -130 57.375 C-131.093 56.991 -132.186 56.607 -133.312 56.211 C-134.199 55.811 -135.086 55.412 -136 55 C-136.66 54.01 -137.32 53.02 -138 52 C-138.144 51.051 -138.289 50.103 -138.438 49.125 C-138.293 48.094 -138.149 47.062 -138 46 C-137.319 45.051 -136.639 44.103 -135.938 43.125 C-134.968 42.424 -133.999 41.722 -133 41 C-131.866 40.794 -130.731 40.587 -129.562 40.375 C-128.387 40.581 -127.211 40.788 -126 41 C-124.969 41.722 -123.938 42.444 -122.875 43.188 C-122.388 43.645 -121.9 44.103 -121.398 44.574 C-120.937 45.045 -120.475 45.515 -120 46 C-119.175 46.825 -118.35 47.65 -117.5 48.5 C-116.675 49.325 -115.85 50.15 -115 51 C-114.515 51.459 -114.031 51.918 -113.531 52.391 C-113.026 52.839 -112.521 53.288 -112 53.75 C-111.01 54.493 -110.02 55.235 -109 56 C-108.113 56.211 -107.226 56.423 -106.312 56.641 C-105.549 56.759 -104.786 56.878 -104 57 C-104.147 56.322 -104.294 55.644 -104.445 54.945 C-104.67 54.015 -104.894 53.084 -105.125 52.125 C-105.392 51.122 -105.659 50.119 -105.934 49.086 C-106.461 47.558 -106.461 47.558 -107 46 C-107.507 45.105 -108.013 44.211 -108.535 43.289 C-109.08 42.451 -109.626 41.613 -110.188 40.75 C-110.703 39.938 -111.219 39.126 -111.75 38.289 C-112.163 37.534 -112.575 36.778 -113 36 C-113.227 34.721 -113.454 33.442 -113.688 32.125 C-113.461 31.094 -113.234 30.062 -113 29 C-111.948 27.793 -111.948 27.793 -110.875 26.562 C-109.926 26.047 -108.978 25.531 -108 25 C-106.484 24.752 -106.484 24.752 -104.938 24.5 C-103.968 24.665 -102.999 24.83 -102 25 C-101.312 25.476 -100.623 25.951 -99.914 26.441 C-99.282 27.286 -98.651 28.13 -98 29 C-97.818 29.67 -97.636 30.339 -97.448 31.029 C-97.32 31.802 -97.191 32.575 -97.059 33.371 C-96.95 34.193 -96.841 35.015 -96.729 35.861 C-96.584 37.137 -96.584 37.137 -96.438 38.438 C-96.338 39.284 -96.238 40.13 -96.135 41.002 C-96.027 41.825 -95.919 42.648 -95.809 43.496 C-95.638 44.671 -95.638 44.671 -95.464 45.871 C-95.311 46.573 -95.158 47.276 -95 48 C-94.475 49.022 -93.951 50.044 -93.41 51.098 C-92.945 51.725 -92.479 52.353 -92 53 C-90.35 52.67 -88.7 52.34 -87 52 C-86.746 51.013 -86.492 50.025 -86.23 49.008 C-86.064 48.385 -85.897 47.763 -85.725 47.121 C-85.547 46.462 -85.37 45.804 -85.188 45.125 C-84.851 43.849 -84.515 42.573 -84.168 41.258 C-83.783 40.183 -83.397 39.108 -83 38 C-82.01 37.34 -81.02 36.68 -80 36 C-78.866 35.856 -77.731 35.711 -76.562 35.562 C-75.387 35.707 -74.211 35.851 -73 36 C-72.175 36.701 -71.35 37.403 -70.5 38.125 C-70.005 39.074 -69.51 40.022 -69 41 C-69.063 41.945 -69.126 42.89 -69.191 43.863 C-69.458 44.898 -69.725 45.934 -70 47 C-70.514 47.857 -71.029 48.714 -71.559 49.598 C-72.179 50.411 -72.799 51.224 -73.438 52.062 C-74.055 52.878 -74.672 53.694 -75.309 54.535 C-75.867 55.349 -76.425 56.162 -77 57 C-77.402 57.857 -77.804 58.714 -78.219 59.598 C-78.477 60.39 -78.734 61.183 -79 62 C-79.021 63.114 -79.041 64.228 -79.062 65.375 C-78.712 66.571 -78.361 67.767 -78 69 C-77.577 69.568 -77.154 70.137 -76.719 70.723 C-75.899 71.572 -75.899 71.572 -75.062 72.438 C-74.433 73.011 -73.804 73.585 -73.156 74.176 C-72.089 75.079 -72.089 75.079 -71 76 C-70.206 76.674 -69.412 77.348 -68.594 78.043 C-67.758 78.73 -66.923 79.417 -66.062 80.125 C-65.216 80.789 -64.369 81.453 -63.496 82.137 C-62.672 82.752 -61.849 83.366 -61 84 C-60.248 84.522 -59.497 85.044 -58.723 85.582 C-58.03 86.029 -57.338 86.477 -56.625 86.938 C-56.019 87.318 -55.413 87.698 -54.789 88.09 C-54.199 88.39 -53.608 88.691 -53 89 C-52.346 89.244 -51.693 89.487 -51.02 89.738 C-50.02 89.868 -50.02 89.868 -49 90 C-48.058 89.698 -48.058 89.698 -47.098 89.391 C-46.426 89.014 -45.754 88.638 -45.062 88.25 C-44.279 87.785 -43.495 87.319 -42.688 86.84 C-41.357 85.929 -41.357 85.929 -40 85 C-38.969 84.197 -37.938 83.394 -36.875 82.566 C-36.063 81.901 -36.063 81.901 -35.234 81.221 C-34.682 80.756 -34.131 80.291 -33.562 79.812 C-33.004 79.33 -32.446 78.847 -31.872 78.349 C-31.042 77.617 -31.042 77.617 -30.195 76.871 C-29.653 76.385 -29.111 75.899 -28.552 75.398 C-28.04 74.937 -27.528 74.475 -27 74 C-26.131 73.228 -25.262 72.456 -24.367 71.66 C-23.565 70.906 -22.764 70.152 -21.938 69.375 C-21.149 68.567 -20.36 67.759 -19.547 66.926 C-18.706 65.96 -17.866 64.995 -17 64 C-16.5 63.368 -16.001 62.735 -15.486 62.083 C-14.696 61.042 -14.696 61.042 -13.891 59.98 C-13.361 59.26 -12.831 58.54 -12.285 57.798 C-11.758 57.06 -11.231 56.323 -10.688 55.562 C-10.174 54.824 -9.66 54.085 -9.131 53.323 C-8.641 52.597 -8.15 51.87 -7.645 51.121 C-7.183 50.415 -6.721 49.708 -6.245 48.98 C-5.834 48.327 -5.423 47.673 -5 47 C-4.406 45.96 -3.811 44.919 -3.199 43.848 C-2.762 42.949 -2.325 42.051 -1.875 41.125 C-1.528 40.269 -1.181 39.413 -0.824 38.531 C-0.552 37.696 -0.28 36.861 0 36 C0.241 35.123 0.482 34.247 0.73 33.344 C0.923 32.447 1.115 31.549 1.312 30.625 C1.516 29.266 1.516 29.266 1.723 27.879 C1.86 26.454 1.86 26.454 2 25 C2.061 23.957 2.121 22.914 2.184 21.84 C2.216 20.218 2.216 20.218 2.25 18.562 C2.227 16.95 2.227 16.95 2.203 15.305 C2.136 14.214 2.069 13.124 2 12 C1.776 10.271 1.776 10.271 1.547 8.508 C1.366 7.412 1.186 6.316 1 5.188 C0.814 4.191 0.629 3.195 0.438 2.168 C0.221 1.095 0.221 1.095 0 0 Z " fill="#000000" transform="translate(584,308)"/>
<path d="M0 0 C15.84 0 31.68 0 48 0 C48.021 6.011 48.042 12.023 48.063 18.217 C48.074 21.354 48.074 21.354 48.085 24.555 C48.089 25.962 48.089 25.962 48.094 27.398 C48.097 28.343 48.1 29.289 48.103 30.262 C48.107 31.842 48.107 31.842 48.112 33.453 C48.116 34.546 48.119 35.638 48.122 36.764 C48.125 37.861 48.129 38.959 48.132 40.089 C48.135 41.193 48.138 42.297 48.141 43.434 C48.143 44.53 48.146 45.626 48.148 46.756 C48.152 48.404 48.152 48.404 48.156 50.086 C48.158 51.193 48.16 52.3 48.163 53.441 C48.165 54.556 48.167 55.672 48.169 56.821 C48.173 58.511 48.173 58.511 48.176 60.236 C48.179 61.941 48.179 61.941 48.183 63.681 C48.185 64.826 48.187 65.972 48.189 67.152 C48.191 68.308 48.193 69.463 48.195 70.654 C48.197 71.823 48.199 72.992 48.201 74.196 C48.203 75.373 48.205 76.551 48.207 77.764 C48.21 79.54 48.21 79.54 48.213 81.352 C48.217 83.135 48.217 83.135 48.22 84.955 C48.222 86.147 48.224 87.339 48.226 88.568 C48.228 89.762 48.231 90.957 48.233 92.188 C48.237 93.982 48.237 93.982 48.241 95.813 C48.244 97.009 48.247 98.205 48.25 99.438 C48.254 100.632 48.258 101.826 48.262 103.057 C48.266 104.249 48.27 105.441 48.275 106.67 C48.281 108.454 48.281 108.454 48.288 110.275 C48.293 111.462 48.297 112.649 48.302 113.872 C48.306 115.055 48.311 116.239 48.315 117.459 C48.32 118.637 48.324 119.816 48.329 121.031 C48.333 122.203 48.337 123.376 48.341 124.584 C48.346 126.332 48.346 126.332 48.352 128.115 C48.354 129.27 48.356 130.425 48.359 131.615 C48.362 133.334 48.362 133.334 48.365 135.088 C48.366 136.226 48.368 137.364 48.369 138.537 C48.371 139.666 48.372 140.794 48.373 141.958 C48.375 143.635 48.375 143.635 48.376 145.347 C48.377 146.456 48.378 147.566 48.38 148.71 C48.381 149.811 48.382 150.913 48.383 152.048 C48.386 153.144 48.388 154.241 48.391 155.371 C48.396 156.47 48.4 157.569 48.406 158.702 C48.411 159.793 48.417 160.885 48.423 162.009 C48.431 163.626 48.431 163.626 48.44 165.275 C48.444 166.335 48.449 167.395 48.453 168.487 C48.454 169.524 48.455 170.562 48.457 171.631 C48.456 173.152 48.456 173.152 48.456 174.704 C48.454 176.188 48.454 176.188 48.452 177.702 C48.453 178.664 48.454 179.627 48.454 180.619 C48.462 181.554 48.469 182.489 48.477 183.452 C48.484 184.355 48.491 185.258 48.498 186.188 C48.498 187.054 48.499 187.921 48.5 188.813 C48.494 189.642 48.487 190.471 48.481 191.325 C48.467 192.118 48.454 192.91 48.44 193.727 C48.412 194.473 48.385 195.219 48.356 195.988 C48.289 197.03 48.289 197.03 48.221 198.093 C48.148 198.722 48.075 199.352 48 200 C47.734 201.014 47.468 202.029 47.193 203.074 C46.857 203.874 46.521 204.675 46.175 205.5 C45.845 206.122 45.516 206.743 45.176 207.383 C44.788 207.917 44.4 208.45 44 209 C43.457 209.6 42.914 210.2 42.354 210.818 C41.825 211.332 41.295 211.846 40.75 212.375 C40.143 212.839 39.536 213.303 38.91 213.781 C38.28 214.183 37.649 214.586 37 215 C36.38 215.34 35.76 215.681 35.121 216.031 C34.164 216.449 34.164 216.449 33.188 216.875 C32.522 217.092 31.857 217.308 31.172 217.531 C30.097 217.763 30.097 217.763 29 218 C28.18 218.093 27.36 218.186 26.516 218.281 C25.239 218.328 25.239 218.328 23.938 218.375 C23.093 218.343 22.249 218.311 21.379 218.277 C20.201 218.14 20.201 218.14 19 218 C17.804 217.649 16.608 217.299 15.375 216.938 C13.704 215.978 13.704 215.978 12 215 C10.96 214.234 10.96 214.234 9.898 213.453 C9.189 212.87 8.48 212.288 7.75 211.688 C7.084 211.076 6.417 210.465 5.73 209.836 C5.159 209.23 4.588 208.624 4 208 C3.361 206.948 2.721 205.896 2.062 204.812 C1.712 203.884 1.361 202.956 1 202 C0.816 201.447 0.631 200.894 0.441 200.324 C0.223 199.174 0.223 199.174 0 198 C-0.041 196.817 -0.081 195.634 -0.123 194.416 C-0.125 193.718 -0.127 193.02 -0.129 192.301 C-0.126 191.543 -0.123 190.784 -0.12 190.002 C-0.121 189.19 -0.122 188.378 -0.123 187.542 C-0.123 186.682 -0.124 185.823 -0.124 184.937 C-0.123 184.035 -0.121 183.132 -0.119 182.203 C-0.117 181.268 -0.115 180.333 -0.114 179.37 C-0.113 178.416 -0.113 177.463 -0.113 176.48 C-0.113 175.502 -0.114 174.524 -0.114 173.516 C-0.114 172.512 -0.114 171.509 -0.114 170.475 C-0.114 169.446 -0.114 168.418 -0.113 167.359 C-0.112 166.304 -0.111 165.249 -0.11 164.162 C-0.109 163.088 -0.107 162.014 -0.106 160.908 C-0.104 159.821 -0.103 158.733 -0.101 157.612 C-0.1 156.518 -0.099 155.424 -0.098 154.297 C-0.097 153.208 -0.096 152.119 -0.096 150.998 C-0.096 149.906 -0.095 148.814 -0.095 147.688 C-0.095 146.588 -0.094 145.488 -0.094 144.355 C-0.094 143.247 -0.094 142.138 -0.093 140.996 C-0.093 139.877 -0.093 138.758 -0.092 137.605 C-0.092 136.476 -0.092 135.348 -0.091 134.185 C-0.09 132.479 -0.09 132.479 -0.09 130.74 C-0.089 129.593 -0.089 128.447 -0.088 127.266 C-0.087 126.108 -0.086 124.95 -0.085 123.757 C-0.084 122.591 -0.083 121.425 -0.082 120.223 C-0.081 119.051 -0.08 117.879 -0.079 116.671 C-0.078 115.494 -0.077 114.316 -0.075 113.104 C-0.074 111.923 -0.073 110.742 -0.072 109.526 C-0.071 108.343 -0.07 107.159 -0.069 105.94 C-0.068 104.754 -0.067 103.569 -0.065 102.347 C-0.064 101.16 -0.063 99.973 -0.062 98.75 C-0.062 97.562 -0.061 96.374 -0.06 95.15 C-0.06 93.963 -0.059 92.775 -0.058 91.552 C-0.058 90.367 -0.057 89.181 -0.057 87.96 C-0.056 86.777 -0.055 85.594 -0.055 84.375 C-0.054 83.195 -0.054 82.016 -0.053 80.8 C-0.053 79.626 -0.052 78.451 -0.052 77.241 C-0.051 76.073 -0.051 74.904 -0.05 73.701 C-0.05 72.541 -0.049 71.382 -0.049 70.188 C-0.048 69.041 -0.048 67.894 -0.047 66.712 C-0.047 65.576 -0.046 64.439 -0.046 63.268 C-0.045 62.14 -0.045 61.012 -0.044 59.85 C-0.043 58.731 -0.043 57.613 -0.042 56.461 C-0.042 55.354 -0.041 54.247 -0.041 53.106 C-0.04 52.007 -0.04 50.908 -0.039 49.776 C-0.038 48.685 -0.038 47.594 -0.037 46.47 C-0.036 45.382 -0.036 44.293 -0.035 43.172 C-0.034 42.076 -0.034 40.98 -0.033 39.85 C-0.032 38.215 -0.032 38.215 -0.031 36.547 C-0.03 35.461 -0.029 34.375 -0.028 33.257 C-0.027 32.21 -0.026 31.164 -0.026 30.086 C-0.025 29.146 -0.024 28.207 -0.023 27.239 C-0.023 26.307 -0.022 25.374 -0.021 24.413 C-0.019 22.334 -0.018 20.255 -0.016 18.112 C-0.011 12.135 -0.005 6.158 0 0 Z " fill="#000000" transform="translate(358,341)"/>
</svg>
